<?xml version="1.0" encoding="utf-8"?>
<!-- Generator: Adobe Illustrator 14.0.0, SVG Export Plug-In . SVG Version: 6.00 Build 43363)  -->
<!DOCTYPE svg PUBLIC "-//W3C//DTD SVG 1.1//EN" "http://www.w3.org/Graphics/SVG/1.1/DTD/svg11.dtd">
<svg version="1.1" id="图层_1" xmlns="http://www.w3.org/2000/svg" xmlns:xlink="http://www.w3.org/1999/xlink" x="0px" y="0px"
	 width="1024px" height="768px" viewBox="0 0 1024 768" enable-background="new 0 0 1024 768" xml:space="preserve">
<rect x="-6.722" stroke="#000000" width="1027" height="765"/>
<g id="接地_x28_ground_x29_">
	<line fill="none" stroke="#FCEE21" stroke-width="2" x1="65.816" y1="40.5" x2="65.816" y2="58.5"/>
	<line fill="none" stroke="#FCEE21" stroke-width="2" x1="57.016" y1="58.5" x2="75.016" y2="58.5"/>
	<line fill="none" stroke="#FCEE21" stroke-width="2" x1="60.016" y1="63" x2="72.016" y2="63"/>
	<line fill="none" stroke="#FCEE21" stroke-width="2" x1="63.816" y1="67.5" x2="67.816" y2="67.5"/>
</g>
<text transform="matrix(1 0 0 1 280.2002 72.001)" font-family="'AdobeSongStd-Light-GBpc-EUC-H'" font-size="24">注释</text>
<g>
	<g>
		<circle fill="#FFFFFF" fill-opacity="0" stroke="#FFFF00" stroke-width="2" cx="396.955" cy="284.206" r="22.5"/>
		<line fill="none" stroke="#FFFF00" x1="396.454" y1="284.706" x2="387.454" y2="275.706"/>
		<line fill="none" stroke="#FFFF00" x1="396.454" y1="284.706" x2="405.454" y2="275.706"/>
		<line fill="none" stroke="#FFFF00" x1="396.454" y1="284.706" x2="396.454" y2="293.706"/>
		<circle fill="#FFFFFF" fill-opacity="0" stroke="#FFFF00" stroke-width="2" cx="428.955" cy="308.206" r="22.5"/>
		<line fill="none" stroke="#FFFF00" x1="428.454" y1="308.706" x2="419.454" y2="299.706"/>
		<line fill="none" stroke="#FFFF00" x1="428.454" y1="308.706" x2="437.454" y2="299.706"/>
		<line fill="none" stroke="#FFFF00" x1="428.454" y1="308.706" x2="428.454" y2="317.706"/>
		<circle fill="#FFFFFF" fill-opacity="0" stroke="#FFFF00" stroke-width="2" cx="428.955" cy="266.706" r="22.5"/>
		<line fill="none" stroke="#FFFF00" x1="428.454" y1="267.205" x2="419.454" y2="258.205"/>
		<line fill="none" stroke="#FFFF00" x1="428.454" y1="267.205" x2="437.454" y2="258.205"/>
		<line fill="none" stroke="#FFFF00" x1="428.454" y1="267.205" x2="428.454" y2="276.205"/>
		
			<radialGradient id="SVGID_1_" cx="451.6143" cy="458.834" r="22.5" gradientTransform="matrix(1 0 0 -1 8.3398 743.04)" gradientUnits="userSpaceOnUse">
			<stop  offset="0.1587" style="stop-color:#FFFFFF;stop-opacity:0"/>
			<stop  offset="0.8726" style="stop-color:#FFFFFF;stop-opacity:0"/>
			<stop  offset="0.9366" style="stop-color:#000000"/>
		</radialGradient>
		<circle fill="url(#SVGID_1_)" fill-opacity="0" stroke="#FFFF00" stroke-width="2" cx="459.954" cy="284.206" r="22.5"/>
		<polygon fill="#FFFFFF" fill-opacity="0" stroke="#FFFF00" points="467.749,292 446.454,286.295 462.043,270.706 		"/>
		<line fill="none" stroke="#FFFF00" x1="428.454" y1="267.205" x2="347.454" y2="267.205"/>
		<line fill="none" stroke="#FFFF00" x1="396.454" y1="284.706" x2="347.454" y2="284.706"/>
		<line fill="none" stroke="#FFFF00" x1="428.454" y1="308.706" x2="347.454" y2="308.706"/>
		<line fill="none" stroke="#FFFF00" x1="347.454" y1="267.205" x2="347.454" y2="342.539"/>
	</g>
	
		<text transform="matrix(1 0 0 1 493.9541 278.2061)" fill="#FFFF00" font-family="'AdobeSongStd-Light-GBpc-EUC-H'" font-size="24">注释</text>
</g>
<g id="三环">
	<g id="三环_x28_sanhuan_x29_">
		<line fill="none" stroke="#FFFF00" x1="147.891" y1="242.75" x2="147.891" y2="336.25"/>
		
			<linearGradient id="SVGID_2_" gradientUnits="userSpaceOnUse" x1="117.8013" y1="469.54" x2="162.8013" y2="469.54" gradientTransform="matrix(1 0 0 -1 8.3398 743.04)">
			<stop  offset="0" style="stop-color:#FFFFFF;stop-opacity:0"/>
			<stop  offset="1" style="stop-color:#FFFFFF"/>
		</linearGradient>
		<circle fill="url(#SVGID_2_)" fill-opacity="0" stroke="#FFFF00" stroke-width="2" cx="148.641" cy="273.5" r="22.5"/>
		<line fill="none" stroke="#FFFF00" x1="148.141" y1="275" x2="139.141" y2="266"/>
		<line fill="none" stroke="#FFFF00" x1="148.141" y1="275" x2="157.141" y2="266"/>
		<line fill="none" stroke="#FFFF00" x1="148.141" y1="275" x2="148.141" y2="284"/>
		
			<linearGradient id="SVGID_3_" gradientUnits="userSpaceOnUse" x1="-413.1987" y1="573.1777" x2="-368.1987" y2="573.1777" gradientTransform="matrix(1 0 0 -1 572.3398 862.6777)">
			<stop  offset="0" style="stop-color:#FFFFFF;stop-opacity:0"/>
			<stop  offset="1" style="stop-color:#FFFFFF"/>
		</linearGradient>
		<circle fill="url(#SVGID_3_)" fill-opacity="0" stroke="#FFFF00" stroke-width="2" cx="181.641" cy="289.5" r="22.5"/>
		<circle fill="#FFFFFF" fill-opacity="0" stroke="#FFFF00" stroke-width="2" cx="148.641" cy="305.5" r="22.5"/>
		<line fill="none" stroke="#FFFF00" x1="148.141" y1="307" x2="139.141" y2="298"/>
		<line fill="none" stroke="#FFFF00" x1="148.141" y1="307" x2="157.141" y2="298"/>
		<line fill="none" stroke="#FFFF00" x1="148.141" y1="307" x2="148.141" y2="316"/>
		<polygon fill="#FCEE21" fill-opacity="0" stroke="#FFFF00" points="188.893,298.496 170.844,291.262 186.133,279.249 		"/>
	</g>
	<text transform="matrix(1 0 0 1 239.8911 262.5)" font-family="'AdobeSongStd-Light-GBpc-EUC-H'" font-size="24">注释</text>
	
		<text transform="matrix(1 0 0 1 239.8911 262.5)" fill="none" stroke="#FCEE21" font-family="'AdobeSongStd-Light-GBpc-EUC-H'" font-size="24">注释</text>
</g>
<g id="小车开关_1_">
	<g id="小车开关">
		<line fill="none" stroke="#FCEE21" stroke-width="2" x1="584.5" y1="91.075" x2="584.5" y2="199.075"/>
		<line fill="none" stroke="#FCEE21" stroke-width="2" x1="575.5" y1="109.075" x2="584.5" y2="100.075"/>
		<line fill="none" stroke="#FCEE21" stroke-width="2" x1="584.5" y1="100.075" x2="593.5" y2="109.075"/>
		<line fill="none" stroke="#FCEE21" stroke-width="2" x1="575.5" y1="118.075" x2="584.5" y2="109.075"/>
		<line fill="none" stroke="#FCEE21" stroke-width="2" x1="584.5" y1="109.075" x2="593.5" y2="118.075"/>
		<line fill="none" stroke="#FCEE21" stroke-width="2" x1="593.5" y1="172.075" x2="584.5" y2="181.075"/>
		<line fill="none" stroke="#FCEE21" stroke-width="2" x1="584.5" y1="181.075" x2="575.5" y2="172.075"/>
		<line fill="none" stroke="#FCEE21" stroke-width="2" x1="593.5" y1="181.075" x2="584.5" y2="190.075"/>
		<line fill="none" stroke="#FCEE21" stroke-width="2" x1="584.5" y1="190.075" x2="575.5" y2="181.075"/>
		<rect x="575.5" y="127.075" fill="#FFFFFF" stroke="#FCEE21" stroke-width="2" width="18" height="36"/>
		
			<rect x="575.5" y="127.075" onclick="alert('{&quot;compil_info&quot;:&quot;1&quot;,&quot;compil_version&quot;:&quot;0.1&quot;,&quot;widget_type&quot;:&quot;xiaocheSwitch&quot;,&quot;ng-show&quot;:&quot;newCurrentData.yaoxinObj['2'].value==1&quot;}')" fill="#FF0031" stroke="#FCEE21" stroke-width="2" width="18" height="36"/>
	</g>
	<text transform="matrix(1 0 0 1 647.5 127.0752)" font-family="'AdobeSongStd-Light-GBpc-EUC-H'" font-size="24">小车开关显示</text>
	
		<text transform="matrix(1 0 0 1 647.5 127.0752)" fill="none" stroke="#FFFF00" font-family="'AdobeSongStd-Light-GBpc-EUC-H'" font-size="24">小车开关显示</text>
</g>
<text onclick="alert('{&quot;compil_info&quot;:&quot;1&quot;,&quot;compil_version&quot;:&quot;0.1&quot;,&quot;widget_type&quot;:&quot;aiText&quot;,&quot;signalType&quot;:&quot;yaoceObj&quot;,&quot;Address&quot;:&quot;1&quot;}')" transform="matrix(1 0 0 1 278.7002 69.0156)" fill="#FCEE21" enable-background="new    " font-family="'AdobeSongStd-Light-GBpc-EUC-H'" font-size="24">名称</text>
<line fill="none" x1="671.5" y1="338.25" x2="932.5" y2="338.25"/>
<rect x="694" y="450" fill="none" width="144" height="45"/>
<text transform="matrix(1 0 0 1 694 469.418)" font-family="'AdobeSongStd-Light-GBpc-EUC-H'" font-size="24">跳转到</text>
<text transform="matrix(1 0 0 1 766 471.1201)" font-family="'ArialMT'" font-size="24">svg1</text>
<text transform="matrix(1 0 0 1 642 292)" fill="none" stroke="#FCEE21" font-family="'AdobeSongStd-Light-GBpc-EUC-H'" font-size="24">跳转到</text>
<text transform="matrix(1 0 0 1 719.5 289.5)" fill="none" stroke="#FCEE21" font-family="'ArialMT'" font-size="24">svg1</text>
<g>
	<g>
		<g id="开开关_1_">
			<g>
				<line fill="none" stroke="#E6E6E6" stroke-width="4" x1="511.304" y1="80.611" x2="511.304" y2="150.95"/>
			</g>
			<rect x="504.743" y="92.088" fill="#FFFFFF" stroke="#FCEE21" stroke-width="2" width="13.121" height="26.242"/>
			
				<rect x="504.893" y="92.088" onclick="alert('{&quot;compil_info&quot;:&quot;1&quot;,&quot;compil_version&quot;:&quot;0.1&quot;,&quot;widget_type&quot;:&quot;xiaocheSwitch&quot;,&quot;ng-show&quot;:&quot;newCurrentData.yaoxinObj['2'].value==1&quot;}')" fill="#FF0031" stroke="#FCEE21" stroke-width="2" width="13.121" height="26.242"/>
		</g>
		
			<rect x="506.351" y="124.162" onclick="alert('{&quot;compil_info&quot;:&quot;1&quot;,&quot;compil_version&quot;:&quot;0.1&quot;,&quot;widget_type&quot;:&quot;xiaocheSwitch&quot;,&quot;ng-show&quot;:&quot;newCurrentData.yaoxinObj['2'].value==1&quot;}')" fill="none" stroke="#FCEE21" stroke-width="2" width="10.205" height="19.499"/>
		<line fill="none" stroke="#E6E6E6" stroke-width="4" x1="511.304" y1="150.95" x2="477.922" y2="197.575"/>
		<line fill="none" stroke="#E6E6E6" stroke-width="4" x1="511.304" y1="150.95" x2="546.078" y2="197.575"/>
		<line fill="none" stroke="#E6E6E6" stroke-width="4" x1="477.922" y1="197.575" x2="546.078" y2="197.575"/>
		<line fill="none" stroke="#E6E6E6" stroke-width="4" x1="493.04" y1="165.561" x2="505.008" y2="173.896"/>
		<line fill="none" stroke="#E6E6E6" stroke-width="4" x1="487.785" y1="173.011" x2="499.753" y2="181.347"/>
		<line fill="none" stroke="#E6E6E6" stroke-width="4" x1="531.203" y1="164.489" x2="519.313" y2="172.935"/>
		<line fill="none" stroke="#E6E6E6" stroke-width="4" x1="536.197" y1="171.472" x2="524.307" y2="179.915"/>
		<line fill="none" stroke="#E6E6E6" stroke-width="4" x1="515.83" y1="190.284" x2="516.082" y2="204.866"/>
		<line fill="none" stroke="#E6E6E6" stroke-width="4" x1="506.526" y1="190.284" x2="506.778" y2="204.866"/>
	</g>
</g>
<g id="变压器_x28_transformer_x29__1_">
	<line fill="none" stroke="#FFFF00" stroke-width="2" x1="35.016" y1="248.373" x2="35.016" y2="329.373"/>
	<circle fill="#FFFFFF" fill-opacity="0" stroke="#FCEE21" stroke-width="2" cx="35.016" cy="275.373" r="18"/>
	<circle fill="#FFFFFF" fill-opacity="0" stroke="#FCEE21" stroke-width="2" cx="35.016" cy="302.373" r="18"/>
	<polygon fill="#FFFFFF" fill-opacity="0" stroke="#FCEE21" stroke-width="2" points="44.016,284.373 22.722,278.667 
		38.311,263.079 	"/>
	<line fill="none" stroke="#FCEE21" stroke-width="2" x1="26.016" y1="293.373" x2="35.016" y2="302.373"/>
	<line fill="none" stroke="#FCEE21" stroke-width="2" x1="35.016" y1="302.373" x2="44.016" y2="293.373"/>
	<line fill="none" stroke="#FCEE21" stroke-width="2" x1="35.016" y1="302.373" x2="35.016" y2="311.373"/>
</g>
<g>
	<g id="开开关">
		<g>
			<line fill="none" stroke="#E6E6E6" stroke-width="4" x1="369.493" y1="91.755" x2="369.493" y2="171.514"/>
			<polygon fill="#C1C0B2" stroke="#E6E6E6" stroke-width="4" points="369.302,179.503 366.765,171.188 371.837,171.188 			"/>
		</g>
		<rect x="360.302" y="107.5" fill="#FFFFFF" stroke="#FCEE21" stroke-width="2" width="18" height="36"/>
		
			<rect x="360.698" y="107.5" onclick="alert('{&quot;compil_info&quot;:&quot;1&quot;,&quot;compil_version&quot;:&quot;0.1&quot;,&quot;widget_type&quot;:&quot;xiaocheSwitch&quot;,&quot;ng-show&quot;:&quot;newCurrentData.yaoxinObj['2'].value==1&quot;}')" fill="#FF0031" stroke="#FCEE21" stroke-width="2" width="18" height="36"/>
	</g>
</g>
<g>
	<g id="小车开关_2_">
		<line fill="none" stroke="#FCEE21" stroke-width="2" x1="407.204" y1="108.616" x2="416.204" y2="99.616"/>
		<line fill="none" stroke="#FCEE21" stroke-width="2" x1="416.204" y1="99.616" x2="425.204" y2="108.616"/>
		<line fill="none" stroke="#FCEE21" stroke-width="2" x1="407.204" y1="117.616" x2="416.204" y2="108.616"/>
		<line fill="none" stroke="#FCEE21" stroke-width="2" x1="416.204" y1="108.616" x2="425.204" y2="117.616"/>
		<line fill="none" stroke="#FCEE21" stroke-width="2" x1="425.204" y1="171.616" x2="416.204" y2="180.616"/>
		<line fill="none" stroke="#FCEE21" stroke-width="2" x1="416.204" y1="180.616" x2="407.204" y2="171.616"/>
		<line fill="none" stroke="#FCEE21" stroke-width="2" x1="425.204" y1="180.616" x2="416.204" y2="189.616"/>
		<line fill="none" stroke="#FCEE21" stroke-width="2" x1="416.204" y1="189.616" x2="407.204" y2="180.616"/>
	</g>
	<g id="普通开关_x28_outputSwitch_x29__2_">
		
			<line id="普通开关_x5F_连接线_5_" fill="none" stroke="#FCEE21" stroke-width="2" x1="416.188" y1="198.247" x2="416.188" y2="158.369"/>
		
			<line id="普通开关_x5F_连接线_4_" fill="none" stroke="#FCEE21" stroke-width="2" x1="416.188" y1="131.782" x2="416.188" y2="91.903"/>
		
			<line id="普通开关_x5F_断开_2_" onclick="alert('{&quot;compil_info&quot;:&quot;1&quot;,&quot;compil_version&quot;:&quot;0.1&quot;,&quot;widget_type&quot;:&quot;xiaocheSwitch&quot;,&quot;ng-repeat&quot;:&quot;item in data.yaoxin&quot;,&quot;ng-if&quot;:&quot;item.Address==7&quot;,&quot;ng-show&quot;:&quot;item.value==0&quot;}')" fill="none" stroke="#00FF00" stroke-width="2" x1="415.656" y1="158.575" x2="405.752" y2="131.575"/>
		
			<line id="普通开关_x5F_闭合_x28_outputSwitch_x5F_close_x29__2_" onclick="alert('{&quot;compil_info&quot;:&quot;1&quot;,&quot;compil_version&quot;:&quot;0.1&quot;,&quot;widget_type&quot;:&quot;xiaocheSwitch&quot;,&quot;ng-repeat&quot;:&quot;item in data.yaoxin&quot;,&quot;ng-if&quot;:&quot;item.Address==7&quot;,&quot;ng-show&quot;:&quot;item.value==1&quot;}')" fill="none" stroke="#00FF00" stroke-width="2" x1="416.188" y1="158.369" x2="416.188" y2="131.782"/>
	</g>
</g>
<g>
	<g id="避雷组件_5_">
		
			<linearGradient id="SVGID_4_" gradientUnits="userSpaceOnUse" x1="208.5981" y1="43.8589" x2="226.5981" y2="43.8589" gradientTransform="matrix(1 0 0 1 50.0391 90.2412)">
			<stop  offset="0" style="stop-color:#FDFDFE;stop-opacity:0"/>
			<stop  offset="0.9104" style="stop-color:#FDFDFE;stop-opacity:0.9104"/>
			<stop  offset="1" style="stop-color:#FDFDFE"/>
		</linearGradient>
		<rect x="258.637" y="107.1" fill="url(#SVGID_4_)" stroke="#FFFF00" stroke-width="2" width="18" height="54"/>
		<line fill="none" stroke="#FFFF00" stroke-width="2" x1="267.637" y1="89.1" x2="267.637" y2="134.1"/>
		<polygon fill="#FFFF00" stroke="#FFFF00" stroke-width="2" points="268.533,146.615 261.76,134.885 274.629,135.273 		"/>
	</g>
	<g id="接地_x28_ground_x29__7_">
		<line fill="none" stroke="#FFFF00" stroke-width="2" x1="267.437" y1="161.1" x2="267.437" y2="179.1"/>
		<line fill="none" stroke="#FFFF00" stroke-width="2" x1="258.637" y1="179.1" x2="276.637" y2="179.1"/>
		<line fill="none" stroke="#FFFF00" stroke-width="2" x1="261.637" y1="183.6" x2="273.637" y2="183.6"/>
		<line fill="none" stroke="#FCEE21" stroke-width="2" x1="265.437" y1="188.1" x2="269.437" y2="188.1"/>
	</g>
</g>
<g>
	<line fill="none" stroke="#FFFF00" stroke-width="2" x1="320.7" y1="96.345" x2="320.7" y2="123.345"/>
	<rect x="302.7" y="123.345" fill="#FFFF00" stroke="#FFF800" stroke-width="2" width="36" height="18"/>
	<g id="接地_x28_ground_x29__6_">
		<line fill="none" stroke="#FFFF00" stroke-width="2" x1="320.5" y1="141.345" x2="320.5" y2="159.345"/>
		<line fill="none" stroke="#FFFF00" stroke-width="2" x1="311.7" y1="159.345" x2="329.7" y2="159.345"/>
		<line fill="none" stroke="#FFFF00" stroke-width="2" x1="314.7" y1="163.845" x2="326.7" y2="163.845"/>
		<line fill="none" stroke="#FCEE21" stroke-width="2" x1="318.5" y1="168.345" x2="322.5" y2="168.345"/>
	</g>
</g>
<g id="小车开关_3_">
	<line fill="none" stroke="#FCEE21" stroke-width="2" x1="447.75" y1="106.416" x2="456.75" y2="97.416"/>
	<line fill="none" stroke="#FCEE21" stroke-width="2" x1="456.75" y1="97.416" x2="465.75" y2="106.416"/>
	<line fill="none" stroke="#FCEE21" stroke-width="2" x1="447.75" y1="115.416" x2="456.75" y2="106.416"/>
	<line fill="none" stroke="#FCEE21" stroke-width="2" x1="456.75" y1="106.416" x2="465.75" y2="115.416"/>
	<line fill="none" stroke="#FCEE21" stroke-width="2" x1="465.75" y1="169.416" x2="456.75" y2="178.416"/>
	<line fill="none" stroke="#FCEE21" stroke-width="2" x1="456.75" y1="178.416" x2="447.75" y2="169.416"/>
	<line fill="none" stroke="#FCEE21" stroke-width="2" x1="465.75" y1="178.416" x2="456.75" y2="187.416"/>
	<line fill="none" stroke="#FCEE21" stroke-width="2" x1="456.75" y1="187.416" x2="447.75" y2="178.416"/>
</g>
<g id="变压器_x28_transformer_x29__2_">
	<line fill="none" stroke="#FFFF00" stroke-width="2" x1="122.164" y1="105.445" x2="122.164" y2="171.754"/>
	<circle fill="#FFFFFF" fill-opacity="0" stroke="#FCEE21" stroke-width="2" cx="122.164" cy="129.204" r="12.85"/>
	<circle fill="#FFFFFF" fill-opacity="0" stroke="#FCEE21" stroke-width="2" cx="122.164" cy="148.479" r="12.85"/>
</g>
<g>
	<line fill="none" stroke="#FCEE21" stroke-width="2" x1="253" y1="54.314" x2="267.637" y2="67.919"/>
	<line fill="none" stroke="#FCEE21" stroke-width="2" x1="253.242" y1="67.938" x2="266.846" y2="53.302"/>
</g>
<g>
	<circle fill="#FFFFFF" fill-opacity="0" stroke="#FCEE21" stroke-width="2" cx="165.605" cy="134.107" r="10.771"/>
	<g id="接地_x28_ground_x29__1_">
		<line fill="none" stroke="#FCEE21" stroke-width="2" x1="165.884" y1="123.162" x2="165.884" y2="111.546"/>
		<line fill="none" stroke="#FCEE21" stroke-width="2" x1="174.684" y1="110.529" x2="156.684" y2="110.529"/>
		<line fill="none" stroke="#FCEE21" stroke-width="2" x1="171.684" y1="106.029" x2="159.684" y2="106.029"/>
		<line fill="none" stroke="#FCEE21" stroke-width="2" x1="167.884" y1="101.529" x2="163.884" y2="101.529"/>
	</g>
	<g>
		<line fill="none" stroke="#FCEE21" stroke-width="2" x1="158.287" y1="128.476" x2="172.923" y2="142.082"/>
		<line fill="none" stroke="#FCEE21" stroke-width="2" x1="158.529" y1="142.099" x2="172.132" y2="127.464"/>
	</g>
	<line fill="none" stroke="#FCEE21" stroke-width="2" x1="165.332" y1="156.692" x2="165.332" y2="145.075"/>
	<g>
		<line fill="none" stroke="#FCEE21" stroke-width="2" x1="170.884" y1="156.692" x2="158.884" y2="156.692"/>
		<line fill="none" stroke="#FCEE21" stroke-width="2" x1="170.884" y1="164.692" x2="158.884" y2="164.692"/>
	</g>
</g>
<polygon fill="#FFFFFF" fill-opacity="0" stroke="#FCEE21" stroke-width="2" points="176.626,68.121 154.583,67.814 165.87,48.878 
	"/>
<circle fill="#FFFFFF" fill-opacity="0" stroke="#FCEE21" stroke-width="2" cx="98.016" cy="61.242" r="12.85"/>
<g>
	<line fill="none" stroke="#FFFF00" x1="135.016" y1="61" x2="126.016" y2="52"/>
	<line fill="none" stroke="#FFFF00" x1="135.016" y1="61" x2="144.016" y2="52"/>
	<line fill="none" stroke="#FFFF00" x1="135.016" y1="61" x2="135.016" y2="70"/>
</g>
<g>
	<line fill="none" stroke="#FCEE21" stroke-width="2" x1="189.016" y1="61" x2="198.016" y2="52"/>
	<line fill="none" stroke="#FCEE21" stroke-width="2" x1="198.016" y1="52" x2="207.016" y2="61"/>
	<line fill="none" stroke="#FCEE21" stroke-width="2" x1="189.016" y1="70" x2="198.016" y2="61"/>
	<line fill="none" stroke="#FCEE21" stroke-width="2" x1="198.016" y1="61" x2="207.016" y2="70"/>
</g>
<g>
	<line fill="none" stroke="#FCEE21" stroke-width="2" x1="225.797" y1="69.016" x2="214.965" y2="52.224"/>
	<line fill="none" stroke="#FCEE21" stroke-width="2" x1="237.428" y1="51.962" x2="225.883" y2="68.271"/>
</g>
<g>
	<circle fill="#FFFFFF" fill-opacity="0" stroke="#FCEE21" stroke-width="2" cx="21.516" cy="135" r="12.85"/>
	<g>
		<line fill="none" stroke="#FCEE21" stroke-width="2" x1="21.117" y1="147.831" x2="10.285" y2="131.038"/>
		<line fill="none" stroke="#FCEE21" stroke-width="2" x1="32.748" y1="130.775" x2="21.204" y2="147.083"/>
	</g>
</g>
<g>
	<g>
		<circle fill="#FFFFFF" fill-opacity="0" stroke="#FCEE21" stroke-width="2" cx="224.743" cy="130.333" r="12.85"/>
		<g>
			<line fill="none" stroke="#FCEE21" stroke-width="2" x1="224.342" y1="143.162" x2="213.511" y2="126.369"/>
			<line fill="none" stroke="#FCEE21" stroke-width="2" x1="235.974" y1="126.107" x2="224.429" y2="142.416"/>
		</g>
	</g>
	<g>
		<circle fill="#FFFFFF" fill-opacity="0" stroke="#FCEE21" stroke-width="2" cx="224.743" cy="154.333" r="12.85"/>
		<g>
			<line fill="none" stroke="#FCEE21" stroke-width="2" x1="224.342" y1="167.162" x2="213.511" y2="150.369"/>
			<line fill="none" stroke="#FCEE21" stroke-width="2" x1="235.974" y1="150.107" x2="224.429" y2="166.416"/>
		</g>
	</g>
	<line fill="none" stroke="#FFFF00" stroke-width="2" x1="224.366" y1="181.067" x2="224.366" y2="108.689"/>
	<g>
		<line fill="none" stroke="#FFFF00" stroke-width="2" x1="224.512" y1="108.689" x2="192.337" y2="108.689"/>
	</g>
</g>
<g>
	<line fill="none" stroke="#FFFF00" stroke-width="3" x1="84.516" y1="107.402" x2="84.516" y2="93.934"/>
	<line fill="none" stroke="#FFFF00" stroke-width="3" x1="84.516" y1="125.271" x2="84.516" y2="111.967"/>
	<line fill="none" stroke="#FFFF00" stroke-width="3" x1="84.516" y1="142.739" x2="84.516" y2="129.271"/>
	<line fill="none" stroke="#FFFF00" stroke-width="3" x1="84.515" y1="176.066" x2="84.515" y2="150.509"/>
	<polygon fill="#FFFFFF" fill-opacity="0" stroke="#FCEE21" stroke-width="2" points="95.538,151.589 73.495,151.282 
		84.782,132.345 	"/>
	<path fill="#FFFFFF" fill-opacity="0" stroke="#FCEE21" stroke-width="2" d="M84.972,108.202c4.589,0,8.309,3.719,8.309,8.307
		c0,4.588-3.72,8.308-8.309,8.308c-4.587,0-8.308-3.72-8.308-8.308C76.664,111.921,80.386,108.202,84.972,108.202z"/>
</g>
<g id="普通开关_x28_outputSwitch_x29__3_">
	
		<line id="普通开关_x5F_连接线_7_" fill="none" stroke="#FCEE21" stroke-width="3" x1="29.532" y1="28.313" x2="29.532" y2="48.07"/>
	
		<line id="普通开关_x5F_连接线_6_" fill="none" stroke="#FCEE21" stroke-width="3" x1="29.532" y1="61.242" x2="29.532" y2="81"/>
	
		<line id="普通开关_x5F_断开_3_" onclick="alert('{&quot;compil_info&quot;:&quot;1&quot;,&quot;compil_version&quot;:&quot;0.1&quot;,&quot;widget_type&quot;:&quot;xiaocheSwitch&quot;,&quot;ng-repeat&quot;:&quot;item in data.yaoxin&quot;,&quot;ng-if&quot;:&quot;item.Address==7&quot;,&quot;ng-show&quot;:&quot;item.value==0&quot;}')" fill="none" stroke="#00FF00" stroke-width="3" x1="29.532" y1="61.242" x2="40.5" y2="48.07"/>
	
		<line id="普通开关_x5F_闭合_x28_outputSwitch_x5F_close_x29__3_" onclick="alert('{&quot;compil_info&quot;:&quot;1&quot;,&quot;compil_version&quot;:&quot;0.1&quot;,&quot;widget_type&quot;:&quot;xiaocheSwitch&quot;,&quot;ng-repeat&quot;:&quot;item in data.yaoxin&quot;,&quot;ng-if&quot;:&quot;item.Address==7&quot;,&quot;ng-show&quot;:&quot;item.value==1&quot;}')" fill="none" stroke="#00FF00" stroke-width="3" x1="29.532" y1="48.07" x2="29.532" y2="61.242"/>
</g>
<g>
	<g id="普通开关_x28_outputSwitch_x29__5_">
		
			<line id="普通开关_x5F_连接线_11_" fill="none" stroke="#FCEE21" stroke-width="2" x1="52.695" y1="103.142" x2="52.695" y2="125.243"/>
		
			<line id="普通开关_x5F_连接线_10_" fill="none" stroke="#FCEE21" stroke-width="2" x1="52.695" y1="127.978" x2="52.695" y2="150.079"/>
		
			<line id="普通开关_x5F_断开_5_" onclick="alert('{&quot;compil_info&quot;:&quot;1&quot;,&quot;compil_version&quot;:&quot;0.1&quot;,&quot;widget_type&quot;:&quot;xiaocheSwitch&quot;,&quot;ng-repeat&quot;:&quot;item in data.yaoxin&quot;,&quot;ng-if&quot;:&quot;item.Address==7&quot;,&quot;ng-show&quot;:&quot;item.value==0&quot;}')" fill="none" stroke="#00FF00" stroke-width="2" x1="54.083" y1="140.938" x2="60.048" y2="125.282"/>
		
			<line id="普通开关_x5F_闭合_x28_outputSwitch_x5F_close_x29__5_" onclick="alert('{&quot;compil_info&quot;:&quot;1&quot;,&quot;compil_version&quot;:&quot;0.1&quot;,&quot;widget_type&quot;:&quot;xiaocheSwitch&quot;,&quot;ng-repeat&quot;:&quot;item in data.yaoxin&quot;,&quot;ng-if&quot;:&quot;item.Address==7&quot;,&quot;ng-show&quot;:&quot;item.value==1&quot;}')" fill="none" stroke="#00FF00" stroke-width="2" x1="52.695" y1="123.267" x2="52.695" y2="138.6"/>
	</g>
	<g id="接地_x28_ground_x29__5_">
		<line fill="none" stroke="#FCEE21" stroke-width="2" x1="52.816" y1="139.858" x2="52.816" y2="157.858"/>
		<line fill="none" stroke="#FCEE21" stroke-width="2" x1="44.016" y1="157.858" x2="62.016" y2="157.858"/>
		<line fill="none" stroke="#FCEE21" stroke-width="2" x1="47.016" y1="162.358" x2="59.016" y2="162.358"/>
		<line fill="none" stroke="#FCEE21" stroke-width="2" x1="50.816" y1="166.858" x2="54.816" y2="166.858"/>
	</g>
</g>
</svg>
