<?xml version="1.0" encoding="utf-8"?>
<!-- Generator: Adobe Illustrator 14.0.0, SVG Export Plug-In . SVG Version: 6.00 Build 43363)  -->
<!DOCTYPE svg PUBLIC "-//W3C//DTD SVG 1.1//EN" "http://www.w3.org/Graphics/SVG/1.1/DTD/svg11.dtd">
<svg version="1.1" id="图层_1" xmlns="http://www.w3.org/2000/svg" xmlns:xlink="http://www.w3.org/1999/xlink" x="0px" y="0px"
	 width="1024px" height="768px" viewBox="0 0 1024 768" enable-background="new 0 0 1024 768" xml:space="preserve">
<g id="zhuzhuangtu" onclick="alert('{&quot;compil_info&quot;:&quot;1&quot;,&quot;widget_type&quot;:&quot;histogram&quot;,&quot;col&quot;:&quot;3&quot;,&quot;row&quot;:&quot;4&quot;,&quot;arrData&quot;:&quot;objArr&quot;}')">
	<g id="hzmsgZzt">
		<line id="hzZzt" fill="none" stroke="#000000" x1="133.074" y1="311.889" x2="521.97" y2="311.889"/>
		<g id="hzfgxZzt">
			<g>
				<line fill="none" stroke="#000000" x1="133.074" y1="311.889" x2="133.074" y2="307.32"/>
				<line fill="none" stroke="#000000" x1="327.522" y1="311.889" x2="327.522" y2="307.32"/>
				<line fill="none" stroke="#000000" x1="521.97" y1="311.889" x2="521.97" y2="307.32"/>
			</g>
		</g>
	</g>
	<g id="zzmsgZzt">
		<g id="zzzbZzt">
			<text transform="matrix(1.0869 0 0 1 117.8811 318.1775)" font-family="'ArialMT'" font-size="16.7717">0</text>
			<text transform="matrix(1.0869 0 0 1 117.8811 292.0691)" font-family="'ArialMT'" font-size="16.7717">5</text>
			<text transform="matrix(1.0869 0 0 1 108.7659 265.9607)" font-family="'ArialMT'" font-size="16.7717">10</text>
			<text transform="matrix(1.0869 0 0 1 108.7659 239.8523)" font-family="'ArialMT'" font-size="16.7717">15</text>
			<text transform="matrix(1.0869 0 0 1 108.7659 213.7439)" font-family="'ArialMT'" font-size="16.7717">20</text>
			<text transform="matrix(1.0869 0 0 1 108.7659 187.6355)" font-family="'ArialMT'" font-size="16.7717">25</text>
			<text transform="matrix(1.0869 0 0 1 108.7659 161.5271)" font-family="'ArialMT'" font-size="16.7717">30</text>
			<text transform="matrix(1.0869 0 0 1 108.7659 135.4187)" font-family="'ArialMT'" font-size="16.7717">35</text>
		</g>
		<line id="zzZzt" fill="none" stroke="#000000" x1="133.074" y1="311.889" x2="133.074" y2="129.129"/>
		<g id="zzfgxZzt">
			<g>
				<line fill="none" stroke="#000000" x1="133.074" y1="311.889" x2="142.795" y2="311.889"/>
				<line fill="none" stroke="#000000" x1="133.074" y1="285.781" x2="142.795" y2="285.781"/>
				<line fill="none" stroke="#000000" x1="133.074" y1="259.672" x2="142.795" y2="259.672"/>
				<line fill="none" stroke="#000000" x1="133.074" y1="233.563" x2="142.795" y2="233.563"/>
				<line fill="none" stroke="#000000" x1="133.074" y1="207.455" x2="142.795" y2="207.455"/>
				<line fill="none" stroke="#000000" x1="133.074" y1="181.347" x2="142.795" y2="181.347"/>
				<line fill="none" stroke="#000000" x1="133.074" y1="155.238" x2="142.795" y2="155.238"/>
				<line fill="none" stroke="#000000" x1="133.074" y1="129.129" x2="142.795" y2="129.129"/>
			</g>
		</g>
	</g>
	<g id="mainHistogramZzt">
		<g>
			<rect x="548.42" y="129.129" fill="#808080" stroke="#000000" stroke-width="0.5" width="48.61" height="18.276"/>
			<g>
				<rect x="258.816" y="129.129" fill="#808080" stroke="#000000" stroke-width="0.5" width="46.667" height="182.76"/>
				<rect x="453.265" y="181.347" fill="#808080" stroke="#000000" stroke-width="0.5" width="46.667" height="130.542"/>
			</g>
		</g>
		<g>
			<rect x="548.42" y="156.543" fill="#DFDFDF" stroke="#000000" stroke-width="0.5" width="48.61" height="18.276"/>
			<g>
				<rect x="206.964" y="233.563" fill="#DFDFDF" stroke="#000000" stroke-width="0.5" width="46.668" height="78.326"/>
				<rect x="401.412" y="207.455" fill="#DFDFDF" stroke="#000000" stroke-width="0.5" width="46.666" height="104.435"/>
			</g>
		</g>
		<g>
			<rect x="548.42" y="183.958" stroke="#000000" stroke-width="0.5" width="48.61" height="18.276"/>
			<g>
				<rect x="155.11" y="207.455" stroke="#000000" stroke-width="0.5" width="46.668" height="104.435"/>
				<rect x="349.56" y="181.347" stroke="#000000" stroke-width="0.5" width="46.667" height="130.542"/>
			</g>
		</g>
	</g>
	<g id="itemsListTextZzt">
		<text transform="matrix(1.0869 0 0 1 603.1057 144.5574)" font-family="'AdobeSongStd-Light-GBpc-EUC-H'" font-size="16.7717">英语</text>
		<text transform="matrix(1.0869 0 0 1 603.1057 171.9705)" font-family="'AdobeSongStd-Light-GBpc-EUC-H'" font-size="16.7717">语文</text>
		<text transform="matrix(1.0869 0 0 1 603.1057 199.3855)" font-family="'AdobeSongStd-Light-GBpc-EUC-H'" font-size="16.7717">数学</text>
	</g>
	<g id="hzzbZzt">
		<text transform="matrix(1.0869 0 0 1 406.5159 327.324)" font-family="'AdobeSongStd-Light-GBpc-EUC-H'" font-size="16.7717">李四</text>
		<text transform="matrix(1.0869 0 0 1 212.0667 327.324)" font-family="'AdobeSongStd-Light-GBpc-EUC-H'" font-size="16.7717">张三</text>
	</g>
</g>
</svg>
