<?xml version="1.0" standalone="no"?>
<!DOCTYPE svg PUBLIC "-//W3C//DTD SVG 1.1//EN" "http://www.w3.org/Graphics/SVG/1.1/DTD/svg11.dtd" >
<svg xmlns="http://www.w3.org/2000/svg">
<metadata>
Created by FontForge 20120731 at Fri May 19 16:48:07 2017
 By admin
</metadata>
<defs>
<font id="iconfont" horiz-adv-x="1024" >
  <font-face 
    font-family="iconfont"
    font-weight="500"
    font-stretch="normal"
    units-per-em="1024"
    panose-1="2 0 6 3 0 0 0 0 0 0"
    ascent="896"
    descent="-128"
    x-height="792"
    bbox="0 -212 1354 896"
    underline-thickness="0"
    underline-position="0"
    unicode-range="U+0078-EA7A"
  />
<missing-glyph 
 />
    <glyph glyph-name=".notdef" 
 />
    <glyph glyph-name=".notdef" 
 />
    <glyph glyph-name=".null" horiz-adv-x="0" 
 />
    <glyph glyph-name="nonmarkingreturn" horiz-adv-x="341" 
 />
    <glyph glyph-name="x" unicode="x" horiz-adv-x="1001" 
d="M281 543q-27 -1 -53 -1h-83q-18 0 -36.5 -6t-32.5 -18.5t-23 -32t-9 -45.5v-76h912v41q0 16 -0.5 30t-0.5 18q0 13 -5 29t-17 29.5t-31.5 22.5t-49.5 9h-133v-97h-438v97zM955 310v-52q0 -23 0.5 -52t0.5 -58t-10.5 -47.5t-26 -30t-33 -16t-31.5 -4.5q-14 -1 -29.5 -0.5
t-29.5 0.5h-32l-45 128h-439l-44 -128h-29h-34q-20 0 -45 1q-25 0 -41 9.5t-25.5 23t-13.5 29.5t-4 30v167h911zM163 247q-12 0 -21 -8.5t-9 -21.5t9 -21.5t21 -8.5q13 0 22 8.5t9 21.5t-9 21.5t-22 8.5zM316 123q-8 -26 -14 -48q-5 -19 -10.5 -37t-7.5 -25t-3 -15t1 -14.5
t9.5 -10.5t21.5 -4h37h67h81h80h64h36q23 0 34 12t2 38q-5 13 -9.5 30.5t-9.5 34.5q-5 19 -11 39h-368zM336 498v228q0 11 2.5 23t10 21.5t20.5 15.5t34 6h188q31 0 51.5 -14.5t20.5 -52.5v-227h-327z" />
    <glyph glyph-name="liebiao" unicode="&#xe622;" 
d="M891 64h-508q-14 0 -24 -10t-10 -24.5t10 -24.5t24 -10h508q14 0 24.5 10t10.5 24.5t-10.5 24.5t-24.5 10zM891 334h-508q-14 0 -24 -10t-10 -24.5t10 -24.5t24 -10h508q14 0 24.5 10t10.5 24.5t-10.5 24.5t-24.5 10zM383 535h508q14 0 24.5 10t10.5 24.5t-10.5 25
t-24.5 10.5h-508q-14 0 -24 -10.5t-10 -25t10 -24.5t24 -10zM220 648h-86q-15 0 -25 -10t-10 -25v-86q0 -15 10 -25t25 -10h86q14 0 24.5 10t10.5 25v86q0 15 -10.5 25t-24.5 10zM220 378h-86q-15 0 -25 -10.5t-10 -24.5v-87q0 -14 10 -24t25 -10h86q14 0 24.5 10t10.5 24
v87q0 14 -10.5 24.5t-24.5 10.5zM220 107h-86q-15 0 -25 -10t-10 -24v-87q0 -14 10 -24.5t25 -10.5h86q14 0 24.5 10.5t10.5 24.5v87q0 14 -10.5 24t-24.5 10z" />
    <glyph glyph-name="circularframeshijian" unicode="&#xe672;" 
d="M512 780q-98 0 -186.5 -38t-153 -102.5t-102.5 -153t-38 -186.5t38 -186.5t102.5 -153t153 -102.5t186.5 -38t186.5 38t153 102.5t102.5 153t38 186.5t-38 186.5t-102.5 153t-153 102.5t-186.5 38zM674.5 137.5q-17.5 -17.5 -42.5 -17.5t-42 18l-120 120q-18 17 -18 42
v240q0 25 17.5 42.5t42.5 17.5t42.5 -17.5t17.5 -42.5v-215l103 -103q17 -17 17 -42t-17.5 -42.5z" />
    <glyph glyph-name="guanbi" unicode="&#xe60d;" 
d="M578 300l410 409q14 14 14 33.5t-14 33t-33.5 13.5t-32.5 -13l-410 -410l-410 410q-13 13 -32.5 13t-33.5 -13.5t-14 -33t14 -33.5l410 -409l-409 -409q-14 -13 -14 -32.5t14 -33.5t33.5 -14t33.5 14l408 409l408 -409q14 -14 33.5 -14t33 14t13.5 33.5t-13 32.5z" />
    <glyph glyph-name="shiliangzhinengduixiang4" unicode="&#xe619;" 
d="M970 -94q0 -1 -1 -2.5l-3 -4.5t-4.5 -4t-6 1.5t-7.5 9.5q-2 5 -5.5 14.5t-16 37.5t-27.5 54.5t-40 61t-52 62t-65 53t-78.5 39t-92.5 13.5t-107 -17v-132q-1 -3 -1.5 -8t-5 -15.5t-12 -16t-22 -3.5t-33.5 16l-337 291l-7.5 5t-13 12.5t-10.5 19.5t6 25.5t29 30.5l341 293
q2 1 5.5 3.5t13 5.5t17.5 2t16 -9.5t12 -24.5v-143h1q110 -6 225 -55q240 -103 289 -334q26 -124 -7 -281z" />
    <glyph glyph-name="e634" unicode="&#xe611;" 
d="M1020 271q-6 66 -36.5 126.5t-82.5 106.5q-60 52 -139 84q-10 -15 -22 -27q-18 -16 -38 -27q22 -7 42 -16q10 -5 13.5 -15.5t-1.5 -19.5q-6 -9 -15.5 -11.5t-18.5 1.5q-104 47 -240 27q-10 -1 -18.5 4t-11.5 15v0q-2 10 4.5 19.5t17.5 10.5q14 2 29 4l-10 8
q-24 23 -37 53l-3 6q-20 -3 -40 -8q-91 51 -226 38q-18 -1 -27 -16.5t-1 -30.5l47 -92q-80 -67 -113 -155h-57q-15 0 -25 -9.5t-10 -23.5v-122q0 -20 18 -30l75 -36q47 -125 179 -200v-108q0 -16 12 -27.5t29 -11.5h104q26 0 37 23l26 57q33 -4 68 -4q55 0 107 10v-47
q0 -16 12 -27.5t28 -11.5h104q24 0 35 20q10 17 40.5 71.5t45 80.5t36.5 69.5t37 79.5q34 78 26 162zM279.5 298q-21.5 0 -36.5 15t-15 35.5t15 35t36.5 14.5t37 -14.5t15.5 -35t-15.5 -35.5t-37 -15zM565 555q25 -9 52 -9q13 0 25 2q54 10 87 52q27 35 27 79q0 55 -41 94
t-98.5 39t-98.5 -39t-41 -94q0 -28 12 -54q23 -50 76 -70z" />
    <glyph glyph-name="tianjia01" unicode="&#xe647;" 
d="M530 11v39h347v-39h-347v0zM530 204h347v-39h-347v39v0zM530 435h347v-39h-347v39v0zM530 608h347v-38h-347v38v0zM370 -27h-180q-19 0 -32 13t-13 31v180q0 19 13 32t32 13h180q18 0 31.5 -13t13.5 -32v-179q0 -19 -13.5 -32t-31.5 -13v0zM376 197q0 7 -6 7h-180
q-7 0 -7 -7v-179q0 -7 7 -7h180q6 0 6 7v179v0zM370 358h-180q-19 0 -32 13t-13 32v180q0 18 13 31t32 13h180q18 0 31.5 -13t13.5 -31v-180q0 -19 -13.5 -32t-31.5 -13v0zM376 583q0 6 -6 6h-180q-7 0 -7 -6v-180q0 -7 7 -7h180q6 0 6 7v180v0zM376 583z" />
    <glyph glyph-name="xingcheng" unicode="&#xe624;" 
d="M281 268v0q17 -22 31 -37l200 -205l202 207l28 35h-1q59 81 59 184q1 126 -83.5 216t-204.5 90t-204.5 -90t-84.5 -216q0 -102 58 -184v0zM512 603q56 0 95 -39.5t39 -95.5t-39.5 -95.5t-94.5 -39.5q-56 0 -95 39.5t-39 95.5q-1 56 38.5 95.5t95.5 39.5zM897 63
q-48 0 -76 -37h-188q-1 2 -3.5 6.5t-3.5 6.5l-58 -58q1 -5 1 -13q0 -24 -16.5 -41t-40.5 -17t-40.5 17t-16.5 41q0 16 8 29q-17 23 -53 57q-12 -15 -19 -28h-188q-30 37 -76 37q-40 0 -68 -28t-28 -68t28 -68t68 -28q48 0 77 39h186q17 -35 49.5 -56t72.5 -21q39 0 72 21
t50 56h187q29 -39 77 -39q40 0 68 28t28 68t-28.5 68t-68.5 28zM128 -89q-23 0 -40.5 16.5t-17.5 39.5t17 41t41 18q23 0 39.5 -17.5t16.5 -41t-16.5 -40t-39.5 -16.5zM898 -89q-23 0 -40.5 16.5t-17.5 39.5t17 41t41 18q23 0 39.5 -17.5t16.5 -41t-16.5 -40t-39.5 -16.5z
" />
    <glyph glyph-name="guanbi1" unicode="&#xe612;" 
d="M512 710q-111 0 -205.5 -55t-149.5 -149.5t-55 -205.5t55 -205.5t149.5 -149.5t205.5 -55t205.5 55t149.5 149.5t55 205.5t-55 205.5t-149.5 149.5t-205.5 55zM674.5 137.5q-8.5 -8.5 -20.5 -8.5t-21 9l-120 120l-118 -117q-8 -9 -20.5 -9t-21.5 9t-9 21.5t9 20.5
l117 118l-120 120q-9 9 -9 21t8.5 20.5t20.5 8.5t21 -9l120 -120l118 117q8 9 20.5 9t21.5 -9t9 -21.5t-9 -20.5l-117 -118l120 -120q9 -9 9 -21t-8.5 -20.5z" />
    <glyph glyph-name="tongji" unicode="&#xe74d;" 
d="M917 -77h-812q-18 0 -30 12.5t-12 29.5v672q0 18 12 30t29.5 12t30 -12t12.5 -30v-532v-98h770q17 0 29.5 -12t12.5 -29.5t-12.5 -30t-29.5 -12.5zM819 49h-84q-18 0 -30 12.5t-12 29.5v294q0 18 12 30t30 12h84q17 0 29.5 -12t12.5 -30v-294q0 -17 -12.5 -29.5
t-29.5 -12.5zM581 49h-84q-18 0 -30 12.5t-12 29.5v462q0 18 12 30t30 12h84q17 0 29.5 -12t12.5 -30v-462q0 -17 -12.5 -29.5t-29.5 -12.5zM343 49h-84q-18 0 -30 12.5t-12 29.5v84q0 18 12 30t30 12h84q17 0 29.5 -12t12.5 -30v-84q0 -17 -12.5 -29.5t-29.5 -12.5v0z" />
    <glyph glyph-name="iconfontyuangongguanli" unicode="&#xe635;" 
d="M633 677q23 -5 38.5 -25t17.5 -50q0 -9 1 -28.5t1 -41t-1.5 -39t-5.5 -21.5q-6 -7 -11.5 -6.5t-5.5 -5.5q0 -3 -1.5 -21.5t-9.5 -51.5q-4 -17 -11.5 -31t-15.5 -25q-11 -13 -21 -23q-1 -13 -1 -25v-22q0 -11 1 -17q1 -13 6.5 -18t20.5 -9q5 -2 18.5 -6t31.5 -10.5t38 -14
t38.5 -14t33 -12t21.5 -8.5q21 -11 27.5 -22t11.5 -29q2 -9 5.5 -33.5t7.5 -51t7 -50t4 -30.5q1 -13 -5 -22t-26 -14q-18 -4 -51 -9t-77 -9t-97 -6.5t-111 -2.5t-111.5 2t-98 5.5t-79 8t-53.5 10.5q-4 1 -10 4t-12 7.5t-9 11t-2 14.5t5.5 33t11 53.5t11.5 53.5t7 31
q4 13 11.5 26t26.5 28q9 7 33.5 15t51.5 15.5t50.5 12.5t30.5 7q15 3 27 7.5t12 12.5v60q-12 9 -22 20q-9 9 -18 22t-17 27q-14 28 -18 51t-5 27t-7.5 6.5t-10.5 11.5q-8 17 -7.5 36.5t2.5 55.5q3 36 12 68.5t38 60.5q16 13 41.5 22t52 13t50.5 4t37 -3q13 -4 21 -9t13 -9
t8 -7.5t6 -5.5q5 -4 13 -2.5t29 -2.5zM539 116l27 -107l45 121l-43 31zM465 163l-41 -33l46 -121l25 108zM829 563q15 -2 23.5 -14t9.5 -30q0 -5 1 -17t1 -24t-1 -23t-3 -13q-4 -4 -7.5 -3.5t-3.5 -3.5q0 -2 -0.5 -12.5t-5.5 -31.5q-2 -10 -6 -18t-10 -15q-5 -7 -12 -13
q-1 -8 -1 -15v-24q1 -7 4 -10t12 -5q5 -1 20 -6t33 -12t33.5 -12.5t21.5 -8.5q12 -6 16.5 -13t7.5 -18q1 -5 3 -19.5t4 -30.5t4 -29.5t2 -17.5q1 -8 -2.5 -14t-16.5 -8q-10 -2 -26.5 -5t-42.5 -5q-2 12 -6 24q-3 10 -7.5 21t-10.5 20q-11 15 -23.5 24t-24.5 15.5t-24.5 10
t-24.5 7.5q-52 18 -84 25.5t-36 12.5q-2 3 -2.5 7t-0.5 9t1 12q14 4 21.5 5t11.5 2q8 2 15 4.5t7 7.5v36l-2 1l-4 2q-2 1 -4 5q6 13 12 32q6 16 11.5 39.5t9.5 56.5q3 26 4 46.5t1 35.5v32q12 2 26 2t22 -2q18 -5 21.5 -10.5t7.5 -8.5q4 -2 8.5 -1.5t16.5 -1.5zM777 235
l7 -27l19 -6l14 37l-21 18zM724 254l-17 -17l1 -5l31 -9l4 11zM269 586q-16 2 -32 1q-15 -1 -32 -5t-31 -15q-12 -8 -19.5 -19t-11 -23t-4.5 -22t-1 -17q-1 -13 -2 -23.5t1 -19t3 -11.5t4 -5t5.5 -2.5t4.5 -13.5q1 -14 6.5 -26.5t11.5 -21.5q3 -5 7.5 -9.5t9 -9.5t10.5 -10
v-12v-18q-1 -6 -5 -10t-14 -6q-5 -1 -16.5 -4t-25.5 -7l-28 -8t-22 -7q-30 -14 -36 -49q-4 -16 -9 -41l-7 -35t0.5 -21.5t16.5 -14.5q7 -2 18 -3t21 -3q11 -2 24 -3q2 12 6 25q3 11 8.5 22t13.5 22q9 9 20.5 17.5t22.5 17.5q13 9 27 17l-10 26l22 17l24 -27l12 3q2 0 6 2
q2 1 4 1l20 23l17 -14q5 1 9.5 2t9.5 2l10 2q11 2 19 4t9 10q0 4 0.5 6.5t0.5 4.5v3q-10 4 -18 7l-14 4q-7 2 -11 4q-9 3 -10 8.5t-1 14.5v11q0 5 1 10q0 5 1 12q-8 12 -16 27q-7 12 -13.5 28t-11.5 33q-5 24 -7 50.5t-1 48.5q0 25 3 50z" />
    <glyph glyph-name="gongzidan" unicode="&#xe646;" 
d="M955 4h-101v629q0 62 -43.5 105.5t-104.5 43.5h-449v0h-54q-70 0 -112.5 -50.5t-42.5 -125.5v0h186v-642q0 -60 43 -103t103 -43h331q7 0 14 1h84q63 0 110.5 48t56.5 113q1 10 -5.5 17t-15.5 7zM234 647h-139q1 1 1 3q5 14 9.5 24t16 27t31.5 27t48 11q21 0 27 -12
t6 -36v-1v0v-43zM401 467h47q94 -142 95 -144l93 144h52l-126 -179v-16h106v-41h-106v-98h-41v98h-105v41h105v18zM891 -104q-36 -36 -82 -36h-327q44 42 44 103h404q-11 -39 -39 -67z" />
    <glyph glyph-name="jinrong" unicode="&#xe744;" 
d="M718 569v138q0 12 -8.5 21t-21.5 9h-610q-12 0 -21 -9t-9 -21v-206q0 -12 9 -21t21 -9h302q51 50 118.5 78t141.5 28q40 0 78 -8v0zM346 433h-268q-12 0 -21 -9t-9 -21v-206q0 -12 9 -21t21 -9h192q-2 19 -2 38q0 127 78 228v0zM275 129h-197q-12 0 -21 -9t-9 -21v-206
q0 -12 9 -21t21 -9h413q-82 36 -139.5 106.5t-76.5 159.5v0zM640 541q-91 0 -168.5 -45t-122.5 -122.5t-45 -169t45 -168.5t122.5 -122t168.5 -45t168.5 45t122.5 122t45 168.5t-45 169t-122.5 122.5t-168.5 45v0zM788 224v-41h-120v-54h120v-40h-120v-99h-54v99h-122v40
h122v54h-122v41h94l-113 195h63l104 -190l104 190h63l-113 -195h94v0zM788 224z" />
    <glyph glyph-name="spinnerdot" unicode="&#xe60f;" 
d="M512 -156q-91 0 -173.5 35.5t-142.5 95.5t-95.5 143t-35.5 173q0 128 69 238t184 166q8 3 16 0.5t11.5 -10.5t1 -16t-10.5 -11q-105 -51 -167.5 -150.5t-62.5 -216.5q0 -110 54.5 -203.5t148 -148t203.5 -54.5t204 54.5t148.5 148t54.5 203.5q0 117 -63 216.5t-168 150.5
q-8 4 -10.5 12t1 15.5t11.5 10.5t16 -1q115 -56 184.5 -165.5t69.5 -238.5q0 -90 -35.5 -173t-95.5 -143t-143 -95.5t-174 -35.5zM417 641v0q0 -40 28 -67.5t67.5 -27.5t67 27.5t27.5 67.5v0v0q0 39 -27.5 67t-67 28t-67.5 -28t-28 -67v0z" />
    <glyph glyph-name="gongzishenpi21" unicode="&#xe61b;" 
d="M345 202h140v-40h-140v40zM202 202h97v-40h-97v40zM180 123q-9 0 -16 7t-7 16v235h606v-86l51 45v331q0 12 -8.5 20.5t-20.5 8.5h-656q-12 0 -20.5 -8.5t-8.5 -20.5v-574q0 -12 8.5 -20.5t20.5 -8.5h517l-53 55h-413zM157 622q0 9 7 16t16 7h560q10 0 16.5 -7t6.5 -16
v-98h-606v98zM897 393l-213 -192l-80 85l-58 -55l138 -146l58 55l209 194z" />
    <glyph glyph-name="qiyerenzheng" unicode="&#xe64a;" 
d="M845 86l59 -117l-63 -5l-42 -49l-58 114q-19 -4 -38.5 -4t-38.5 4l-58 -114l-41 49l-64 5l60 117q-57 58 -57 140t58 141t140.5 59t140.5 -59t58 -141t-56 -140zM805.5 290q-6.5 6 -15.5 6t-15 -6l-104 -103l-53 53q-7 7 -16 7t-15 -6.5t-6 -15.5t6 -15l69 -69
q6 -7 15 -7t16 7v0l118 119q7 6 7 15t-6.5 15zM729 515q-12 0 -24 -1v0v266l-346 -114v35l381 139l115 -98v-255q-5 2 -12 5q-54 23 -114 23zM618 622v-129l-1 -0.5t-2 -0.5q-52 -22 -93 -63q-33 -33 -53 -74v258l-289 -93v-538h-50v566l386 135zM417 439l-182 -49v83
l182 60v-94zM417 289l-182 -36v79l182 47v-90zM417 136l-182 -17v77l182 30v-90zM417 -16h-182v81l182 13v-94z" />
    <glyph glyph-name="tubiao99" unicode="&#xe69c;" 
d="M764 586v89q0 13 -9 22.5t-21 9.5h-598q-13 0 -22 -9.5t-9 -22.5v-89h659zM288 687q0 -12 -8.5 -20.5t-20.5 -8.5h-65q-12 0 -20.5 8.5t-8.5 20.5v63q0 12 8.5 20.5t20.5 8.5h65q12 0 20.5 -8.5t8.5 -20.5v-63zM705 689q0 -12 -8.5 -20.5t-20.5 -8.5h-65q-12 0 -20.5 8.5
t-8.5 20.5v63q0 12 8.5 20.5t20.5 8.5h65q12 0 20.5 -8.5t8.5 -20.5v-63zM758 20q-52 0 -97.5 23t-76.5 62h-56v59h23q-11 31 -13 64h-13v59h18q6 29 20 55h-40v60h62v-25q31 39 76 61t97 22h5v62h-657v-484q0 -21 15 -36t36 -15h556q16 0 29 9.5t18 23.5h-1h-1zM162 404h62
v-60h-62v60zM164 289h62v-59h-62v59zM228 107h-62v59h62v-59zM282 403h61v-60h-61v60zM284 288h61v-59h-61v59zM347 106h-61v59h61v-59zM402 405h61v-60h-61v60zM404 290h61v-59h-61v59zM467 108h-61v59h61v-59zM760 437q-83 0 -142 -59t-59 -141.5t59 -141.5t142 -59
t142 59t59 141.5t-59 141.5t-142 59v0zM760 83q-64 0 -109 45t-45 108.5t45 108.5t108.5 45t109 -45t45.5 -108.5t-45.5 -108.5t-108.5 -45v0zM760 83zM849 267q4 4 7 11q3 6 -2 11l-6 7q-5 5 -6 5q-7 5 -12.5 2t-11.5 -9l-29 -29l-27 -27q-5 -4 -10.5 -5t-8.5 4l-6 6l-9 9
l-8 10q-5 6 -6 7q-4 3 -9 4t-10 -3l-3 -3q-3 -2 -5.5 -5t-5.5 -5l-3 -3q-9 -11 3 -24q3 -4 10 -11l14 -14q9 -10 14 -15q7 -8 12 -12q5 -5 14 -4.5t13 5.5q10 9 21 20l24 24q13 12 24.5 23.5t21.5 20.5v0v0z" />
    <glyph glyph-name="loufang" unicode="&#xe607;" 
d="M559 640v-64h419v64h-419zM559 -96h151v320h120v-320h148v640h-419v-640zM81 -96h448v960h-448v-960zM465 136h-128v128h128v-128zM335 776h128v-128h-128v128zM335 520h128v-128h-128v128zM143 776h128v-128h-128v128zM143 520h128v-128h-128v128zM143 264h128v-128
h-128v128z" />
    <glyph glyph-name="qiyoutubiao" unicode="&#xe618;" 
d="M904 288q-7 16 -9 36t-0.5 32.5t4.5 35.5q5 20 3.5 42t-7.5 42t-25.5 39.5t-49.5 33.5q1 5 5 12t7 12.5t5.5 11t2 9.5t-5.5 6l-102 49q-17 8 -50 6.5t-38 -12.5l-2 -4t-2.5 -5.5l-2 -6t-2 -6.5t-0.5 -6t1 -6t3.5 -5.5t6 -5.5t8.5 -4.5t12 -3.5q22 -5 45 -21.5t35 -30.5
l12 -14q8 -7 16.5 -11.5t19 -8t13.5 -5.5q17 -8 26.5 -16t13.5 -20t4.5 -21.5t1.5 -30.5v-9q0 -10 -2.5 -39.5t-0.5 -53t12 -46.5q17 -37 25.5 -63.5t8 -49.5t-13.5 -35q-15 -15 -35 -19t-37 1t-33 15q-54 36 -48 156q3 84 -9 120q-4 11 -8.5 21t-9 16.5t-9.5 12t-9.5 9
t-9.5 5.5t-8.5 3t-7.5 1.5t-6 0.5t-4 -0.5t-3 -0.5h-37v284q0 12 -9 21t-22 9h-349q-12 0 -21 -9t-9 -21v-670h-41q-4 0 -9 -0.5t-13.5 -8t-8.5 -21.5v-42h31h41h30h349h31h42h31v42q0 4 -0.5 9t-8 13t-21.5 8h-43v338h37q18 0 31 -40q9 -25 6 -97q-1 -38 -1 -72t15 -68
t48 -56q41 -27 87 -27q27 0 46 7t38 25q14 14 22 30t8.5 34t-0.5 33.5t-8 34.5t-11 29.5t-12.5 27.5zM778.5 538q-6.5 0 -10.5 4.5t-4 10.5t4.5 10.5t10.5 4.5t10.5 -4t4.5 -10.5t-4.5 -11t-11 -4.5zM270 670q0 11 8.5 19.5t20.5 8.5h209q12 0 20.5 -8.5t8.5 -19.5v-162
q0 -11 -8.5 -19.5t-20.5 -8.5h-209q-12 0 -20.5 8.5t-8.5 19.5v162z" />
    <glyph glyph-name="a-dd-jg-report" unicode="&#xe69a;" 
d="M830 766h-95v64h-86q-21 29 -57.5 46.5t-79.5 17.5t-79.5 -17.5t-57.5 -46.5h-86v-64h-95q-53 0 -90.5 -37t-37.5 -90v-637q0 -53 37.5 -90.5t90.5 -37.5h636q53 0 90.5 37.5t37.5 90.5v637q0 53 -37.5 90t-90.5 37zM353 766h71q0 27 25.5 45.5t62.5 18.5t62.5 -18.5
t25.5 -45.5h71v-127h-318v127zM735 66h-446q-13 0 -22.5 9t-9.5 22.5t9.5 22.5t22.5 9h446q13 0 22.5 -9t9.5 -22.5t-9.5 -22.5t-22.5 -9zM735 225h-446q-13 0 -22.5 9t-9.5 22.5t9.5 22.5t22.5 9h446q13 0 22.5 -9t9.5 -22.5t-9.5 -22.5t-22.5 -9zM735 384h-446
q-13 0 -22.5 9.5t-9.5 22.5t9.5 22.5t22.5 9.5h446q13 0 22.5 -9.5t9.5 -22.5t-9.5 -22.5t-22.5 -9.5z" />
    <glyph glyph-name="xiaoxi1" unicode="&#xe681;" 
d="M512 872q-130 0 -240 -56t-174 -152t-64 -210q0 -97 48 -182t132 -144v-212l209 127q46 -7 89 -7q130 0 240 56t174 152.5t64 210t-64 209.5t-174 152t-240 56zM273.5 394q-24.5 0 -42 17.5t-17.5 42.5t17.5 42.5t42 17.5t42 -17.5t17.5 -42.5t-17.5 -42.5t-42 -17.5z
M512.5 394q-24.5 0 -42 17.5t-17.5 42.5t17.5 42.5t42 17.5t42 -17.5t17.5 -42.5t-17.5 -42.5t-42 -17.5zM751.5 394q-24.5 0 -42 17.5t-17.5 42.5t17.5 42.5t42 17.5t42 -17.5t17.5 -42.5t-17.5 -42.5t-42 -17.5z" />
    <glyph glyph-name="iconfont_hexinhu" unicode="&#xe601;" 
d="M230 366q0 -43 26 -99.5t65.5 -105.5t91.5 -83.5t100 -34.5t100.5 34.5t91.5 83.5t65 105.5t26 99.5v244q-93 0 -158 24t-125 71q-60 -47 -125 -71t-158 -24v-244zM404 426l73 -71q42 36 83 69q28 22 39 30q23 17 40 29q58 41 90 61l23 -31q-22 -13 -71 -60
q-26 -25 -44 -44q-23 -24 -52 -58q-63 -74 -114 -146l-153 152zM512 838q-85 -65 -175.5 -98.5t-221.5 -33.5v-343q0 -48 23 -109.5t63.5 -120.5t90 -109.5t108 -81.5t112.5 -31t112.5 31t108 81.5t90 109.5t63.5 120.5t23 109.5v343q-131 0 -221.5 33.5t-175.5 98.5z
M852 365q0 -52 -31 -119.5t-78.5 -127t-110.5 -100.5t-120 -41t-120 41t-110.5 100.5t-78.5 127t-31 119.5v294q112 0 189.5 28.5t150.5 84.5q73 -56 150.5 -84.5t189.5 -28.5v-294z" />
    <glyph glyph-name="baoxiao" unicode="&#xe62b;" 
d="M341 245q0 73 28 140h-212q-6 0 -6 6v69q0 6 6 6h235q6 0 6 -6v-21q43 69 112 112h-353q-6 0 -6 5v70q0 6 6 6h427q6 0 6 -6v-38q54 18 111 18q13 0 25 -1v192q0 11 -7.5 19t-19.5 8h-657q-11 0 -19 -8t-8 -19v-825q0 -11 8 -19t19 -8h460q-74 50 -117.5 129t-43.5 171z
M289 225q0 -6 -6 -6h-126q-6 0 -6 6v70q0 6 6 6h126q6 0 6 -6v-70v0zM701.5 546q-124.5 0 -213 -88t-88.5 -212.5t88.5 -213t213 -88.5t213 88.5t88.5 213t-88.5 212.5t-213 88zM821 262v-39h-95v-53h95v-40h-95v-78h-49v78h-99v40h99v53h-99v39h83l-91 166h55
q3 -5 38.5 -78t36.5 -76l81 154h52l-94 -166h82v0z" />
    <glyph glyph-name="chalv" unicode="&#xe608;" horiz-adv-x="1026" 
d="M989 832l-37 37q-3 1 -8 2t-19.5 2t-28 -0.5t-30.5 -8.5t-29 -20l-189 -193l-522 78l-66 -62l390 -226l-143 -135l-243 -17l-45 -16l242 -136l132 -246l20 45l17 230q403 411 563 571q14 18 13 39t-9 39l-8 17v0v0zM598 289l185 -353l54 58l-46 472l-193 -177v0v0z" />
    <glyph glyph-name="shenbao" unicode="&#xe658;" 
d="M487 190v11q0 4 1 10h-166q-18 0 -30 12.5t-12 30.5t12 30.5t30 12.5h196q25 42 67 66t93 24h11q5 0 12 -1v172h-98q-19 0 -32.5 9t-21.5 21.5t-12 28t-4 28.5v87h-312q-11 0 -18.5 -7.5t-7.5 -18.5v-513v0v-88q0 -11 7.5 -18.5t18.5 -7.5h59h2h239q-16 24 -25 52t-9 59z
M292 458.5q12 12.5 30 12.5h252q18 0 30.5 -12.5t12.5 -30.5t-12.5 -31t-30.5 -13h-252q-18 0 -30 13t-12 31t12 30.5zM817 249q-12 27 -32 48t-47 33.5t-58 12.5q-30 0 -57 -12.5t-47.5 -33t-32 -48.5t-11.5 -59q0 -32 11.5 -60t32.5 -49q20 -21 47 -33t57 -12q31 0 58 12
t47 33t32 49t12 60q0 31 -12 59zM705 201v-106q0 -9 -7 -16t-16.5 -7t-16 7t-6.5 16v106h-72l96 94l95 -94h-73zM625 603h76v103q0 11 -7 18.5t-18 7.5h-101v-77q0 -22 15 -37t35 -15z" />
    <glyph glyph-name="xiaoweidaifagongzi" unicode="&#xe663;" 
d="M664 437q7 -22 7 -46q0 -66 -46.5 -112.5t-112.5 -46.5t-113 46.5t-47 112.5q0 24 7 46l-166 96v-420q0 -33 23.5 -56.5t56.5 -23.5h478q33 0 56 23.5t23 56.5v420l-166 -96v0zM664 437zM512 550q73 0 120 -55l196 113q-6 27 -27.5 44.5t-49.5 17.5h-478
q-28 0 -49.5 -17.5t-27.5 -44.5l195 -113q48 55 121 55v0zM512 550zM565 380q12 0 19 6.5t7 17t-7 17t-19 6.5h-16l32 28q8 7 8 16.5t-8 16.5t-18.5 7t-18.5 -7l-32 -33l-32 33q-8 7 -18.5 7t-18.5 -7t-8 -16.5t8 -16.5l32 -28h-16q-12 0 -19.5 -6.5t-7.5 -17t7.5 -17
t19.5 -6.5h31v-19h-31q-12 0 -19.5 -6.5t-7.5 -17.5t7.5 -17t19.5 -6h31v-34q0 -10 7.5 -16.5t19.5 -6.5t19 6.5t7 16.5v34h22q12 0 19 6t7 17t-7 17.5t-19 6.5h-27v19h27v0zM565 380z" />
    <glyph glyph-name="f20001" unicode="&#xe604;" 
d="M509.5 832q-91.5 0 -174.5 -35.5t-143.5 -96t-96 -143.5t-35.5 -174.5t35.5 -175t96 -143.5t143.5 -95.5t174.5 -35.5t175 35.5t143.5 95.5t96 143.5t36 175t-36 174.5t-96 143.5t-143.5 96t-175 35.5zM442 385l17 -221q1 -4 1 -8q0 -21 -15 -35.5t-36 -14.5t-35.5 14.5
t-14.5 35.5q0 4 1 8l17 221q-41 8 -67.5 31.5t-26.5 41.5q0 57 26 176v12q0 6 3.5 9.5t8.5 3.5t9 -3.5t4 -9.5v-138q0 -25 25 -25t25 25v145l25 6l25 -6v-145q0 -25 25.5 -25t25.5 25v138q0 6 3.5 9.5t8.5 3.5t9 -3.5t4 -9.5v-12q25 -120 25 -176q0 -19 -26 -42t-67 -31z
M736 332q0 -13 -5 -23t-12.5 -15t-15 -8t-12.5 -4h-5v-126h-2q2 -6 2 -13q0 -15 -11 -26t-26.5 -11t-27 11t-11.5 26q0 7 3 13h-3v453v25q0 10 7.5 17.5t18.5 7.5q14 0 21 -12q29 -27 53.5 -84.5t25.5 -129.5v0v-101z" />
    <glyph glyph-name="can" unicode="&#xe609;" 
d="M172 226h680q20 0 34 14.5t14 35t-14 35t-34 14.5h-4q-14 100 -79.5 176.5t-160.5 103.5v1q1 9 1 13q0 41 -28 69.5t-69 28.5t-69 -28.5t-28 -69.5q0 -4 1 -14q-95 -27 -160.5 -103.5t-79.5 -176.5h-4q-10 0 -19 -4t-15.5 -10.5t-10 -15.5t-3.5 -20q0 -20 14 -34t34 -15
v0zM512 668q20 0 34 -14.5t14 -34.5v-2l-1 -1q-12 2 -24 2.5t-23 0.5t-23 -0.5t-25 -2.5v1v2q0 20 14 34.5t34 14.5v0zM307 405q24 39 59.5 67t79.5 40q2 1 4 1v0q2 1 4 1q11 0 18 -7.5t7 -18.5q0 -6 -2.5 -11t-7.5 -8.5t-10 -4.5q-23 -7 -43 -19t-37 -28t-29 -35
q-2 -5 -5.5 -8t-8 -5t-9.5 -2q-10 0 -17 7t-7 17q0 8 4 14v0zM852 178h-680q-20 0 -34 -14.5t-14 -35t14 -35t34 -14.5h680q20 0 34 14.5t14 35t-14 35t-34 14.5v0z" />
    <glyph glyph-name="approval" unicode="&#xe61d;" 
d="M277 77l2 -2h188h36h70h76.5t67 0.5t30.5 1.5q14 5 28.5 19.5t18.5 28.5q3 9 3 45.5t-2 45.5q-4 11 -26.5 25.5t-24.5 19.5q-8 21 4 37q7 10 23 16t31.5 16t24.5 31q15 39 -13 71t-69 24q-16 -3 -30 -15.5t-20 -26.5q-4 -10 -4.5 -40.5t-11.5 -38.5q-16 -11 -31 -7
t-24 14t-21 14.5t-20 -4.5q-3 -3 -10.5 -14t-8.5 -15q3 -4 83.5 -61.5t89.5 -61.5v-18q-5 2 -22 15l-158 110q-5 0 -7 -3l-2 -4l-1 7l1 47l-196 1q-5 -42 1 -57q8 -3 97.5 -3t95.5 4q18 -19 51 -43.5t81 -56.5t59 -40q0 -4 -0.5 -7t-1 -5.5t-2 -4t-2 -3t-3 -2.5t-4 -1.5
t-5 -0.5h-5h-6.5h-7h-357h-6h-14t-9.5 1.5t-7.5 2t-4.5 5.5t-3 8t-1 13t-0.5 17v24q1 37 1 63v298q0 14 1.5 20t3 7.5t9.5 3t13 3.5q2 10 2 30t-3 27q-61 6 -73 -9q-3 -4 -5 -8.5t-3 -10.5t-1.5 -11t-1 -12.5t-0.5 -11.5v-12.5v-10.5v-348q0 -12 -1 -34t-1 -33t3 -27
t11.5 -28.5t23.5 -24.5v0zM511 708q17 4 26.5 -6.5t6.5 -24.5t-17 -18q-16 -4 -26 6.5t-7.5 24.5t17.5 18zM353 627h331q-2 7 -39 44l-62 62q-3 3 -5 4.5t-5.5 2.5t-5 1h-8h-11.5h-84q-6 -3 -57.5 -55.5t-53.5 -58.5zM352 408q16 -3 157.5 -2.5t147.5 2.5q2 8 2 28t-2 28
q-6 3 -148 3.5t-156 -3.5zM353 518q15 -2 151.5 -2t152.5 2l1 44v4q0 7 -1.5 8t-9.5 1h-284q-5 0 -7.5 -0.5t-3.5 -2.5t-1 -3.5t0.5 -6.5t0.5 -9v-10.5v-13.5t1 -11v0zM712 600q19 -2 23.5 -7.5t2 -16.5t1.5 -31q40 -5 55 1q5 10 3.5 45.5t-5.5 47.5q-7 19 -30 19
q-32 2 -50 0q-2 -7 -2 -29t2 -29v0zM511 708q-15 -4 -17.5 -18t7.5 -24.5t26 -6.5q14 4 17 18t-6.5 24.5t-26.5 6.5z" />
    <glyph glyph-name="kaoqin" unicode="&#xe639;" 
d="M677 527q8 0 8 2v44q0 2 -8 2h-196q-8 0 -8 -2v-44q0 -2 8 -2h196zM430 575h-44q-2 0 -2 -2v-44q0 -2 2 -2h44q2 0 2 2v44q0 2 -2 2zM430 489h-44q-2 0 -2 -2v-44q0 -2 2 -2h44q2 0 2 2v44q0 2 -2 2zM530.5 820q-91.5 0 -175 -35.5t-143.5 -96t-96 -143.5t-36 -174.5
t36 -175t96 -144t143.5 -96t175 -35.5t175 35.5t143.5 96t95.5 144t35.5 175t-35.5 174.5t-95.5 143.5t-143.5 96t-175 35.5zM365 131q-8 0 -13.5 6t-5.5 13v440q0 8 5.5 13.5t13.5 5.5h337q8 0 13.5 -5.5t5.5 -13.5v-249l-62 -59l-27 29q-10 12 -24.5 14t-23.5 -7l-66 -60
q-10 -9 -9 -23t11 -26l71 -78h-226zM677 173l-44 -42l-103 110l43 41l61 -63l159 144l40 -45zM686 443v44q0 2 -8 2h-195q-9 0 -9 -2v-44q0 -2 9 -2h195q8 0 8 2z" />
    <glyph glyph-name="yoaliucheng" unicode="&#xe659;" 
d="M608 832h-128q-40 0 -68 -28t-28 -68t28 -68t68 -28h128q40 0 68 28t28 68t-28 68t-68 28zM608 704h-128q-13 0 -22.5 9.5t-9.5 22.5t9.5 22.5t22.5 9.5h128q13 0 22.5 -9.5t9.5 -22.5t-9.5 -22.5t-22.5 -9.5zM608 512h-128q-40 0 -68 -28t-28 -68t28 -68t68 -28h128
q40 0 68 28t28 68t-28 68t-68 28zM608 384h-128q-13 0 -22.5 9.5t-9.5 22.5t9.5 22.5t22.5 9.5h128q13 0 22.5 -9.5t9.5 -22.5t-9.5 -22.5t-22.5 -9.5zM608 192h-128q-40 0 -68 -28t-28 -68t28 -68t68 -28h128q40 0 68 28t28 68t-28 68t-68 28zM608 64h-128q-13 0 -22.5 9.5
t-9.5 22.5t9.5 22.5t22.5 9.5h128q13 0 22.5 -9.5t9.5 -22.5t-9.5 -22.5t-22.5 -9.5zM256 128q-53 0 -90.5 37.5t-37.5 90.5t37.5 90.5t90.5 37.5h64v64h-64q-80 0 -136 -56t-56 -136v0q0 -80 56 -136t136 -56v-64l96 96l-96 96v-64zM832 768h-64v-64h64q53 0 90.5 -37.5
t37.5 -90.5t-37.5 -90.5t-90.5 -37.5v64l-96 -96l96 -96v64q80 0 136 56t56 136v0q0 80 -56 136t-136 56z" />
    <glyph glyph-name="woyiyuedu-weigouxuan" unicode="&#xe8e5;" 
d="M852 794q29 0 49.5 -20.5t20.5 -49.5v-680q0 -29 -20.5 -49.5t-49.5 -20.5h-680q-29 0 -49.5 20.5t-20.5 49.5v680q0 29 20.5 49.5t49.5 20.5h680zM852 834h-680q-46 0 -78 -32t-32 -78v-680q0 -46 32 -78t78 -32h680q46 0 78 32t32 78v680q0 46 -32 78t-78 32z" />
    <glyph glyph-name="woyiyuedu-yigouxuan" unicode="&#xe8e6;" 
d="M452 322l-120 124l-59 -62l179 -186l299 310l-60 62zM852 794q29 0 49.5 -20.5t20.5 -49.5v-680q0 -29 -20.5 -49.5t-49.5 -20.5h-680q-29 0 -49.5 20.5t-20.5 49.5v680q0 29 20.5 49.5t49.5 20.5h680zM852 834h-680q-46 0 -78 -32t-32 -78v-680q0 -46 32 -78t78 -32h680
q46 0 78 32t32 78v680q0 46 -32 78t-78 32z" />
    <glyph glyph-name="sousuo1" unicode="&#xe633;" 
d="M292 229q60 -37 129 -37q101 1 172 72t71 172.5t-71 172.5t-172 71t-172 -71.5t-71 -172.5q0 -52 21.5 -99.5t59.5 -80.5l-113 -116q-6 -7 -6 -15t6 -14t14 -6t15 7l115 117h2zM668 631h196q8 0 14.5 6.5t6.5 14.5t-6.5 14.5t-14.5 6.5h-196q-8 0 -14.5 -6.5t-6.5 -14.5
t6.5 -14.5t14.5 -6.5zM864 401h-127q-8 0 -14.5 -6.5t-6.5 -14.5t6.5 -14.5t14.5 -6.5h127q8 0 14.5 6.5t6.5 14.5t-6.5 14.5t-14.5 6.5zM864 131h-573q-8 0 -14.5 -6t-6.5 -14.5t6.5 -14.5t14.5 -6h572q8 0 14 6t6 14.5t-5.5 14.5t-13.5 6zM421 258q-73 0 -125 52t-52 125
t52 125t125 52t125 -52t52 -125t-52 -125t-125 -52zM421 572q-56 0 -95.5 -40t-39.5 -95.5t39.5 -95.5t95.5 -40t95.5 40t39.5 95.5t-39.5 95.5t-95.5 40z" />
    <glyph glyph-name="hetong" unicode="&#xe7e9;" 
d="M798 309q41 0 70 -13t64 -41l1 376q0 15 -7.5 34t-18.5 30l-165 169q-12 10 -30.5 18t-33.5 8h-561q-31 0 -53 -22t-22 -53v-817q0 -31 22 -53t53 -22h495q-31 35 -46.5 67t-15.5 75q0 100 73.5 172t174.5 72zM185 706h335h1q10 0 17.5 -7.5t7.5 -17.5v-1
q0 -11 -7.5 -18.5t-18.5 -7.5h-335h-1q-10 0 -17.5 7.5t-7.5 18.5v0v1q0 10 7.5 17.5t17.5 7.5h1zM185 556h613q11 0 18.5 -7.5t7.5 -18.5t-7.5 -18.5t-18.5 -7.5h-613h-1q-10 0 -17.5 7.5t-7.5 18.5v0v1q0 10 7.5 17.5t17.5 7.5h1zM159 380q0 11 7.5 18.5t18.5 7.5h448
q11 0 18.5 -7.5t7.5 -18.5t-7.5 -18.5t-18.5 -7.5h-448h-1q-10 0 -17.5 7.5t-7.5 18.5v0zM794 253h-2q-77 0 -131.5 -54.5t-54.5 -131.5v-2v-1q0 -77 54.5 -131.5t131.5 -54.5h2h2q77 0 131.5 54.5t54.5 131.5v1v2q0 77 -54.5 131.5t-131.5 54.5h-2zM911 69l-42 -37l4 -53
q0 -11 -8 -19q-1 0 -4 -1.5t-7 -1.5t-7 3l-49 27l-49 -27q-6 -2 -12.5 -0.5t-10.5 4.5q-7 8 -7 19l11 56l-41 38q-14 7 -8 18q8 15 19 15l53 8l26 49q6 11 19 11t19 -11l26 -49l52 -8q9 -4 19 -15q0 -18 -3 -26z" />
    <glyph glyph-name="yly_dairenzheng" unicode="&#xe61c;" 
d="M589 538h174q8 0 13.5 6t5.5 14t-5.5 13.5t-13.5 5.5h-174q-8 0 -13.5 -5.5t-5.5 -13.5t5.5 -14t13.5 -6zM763 345q-56 0 -95.5 -39.5t-39.5 -95t39.5 -95.5t95.5 -40t95.5 40t39.5 95.5t-39.5 95t-95.5 39.5zM821 172h-77q-8 0 -14 5.5t-6 13.5v77q0 8 6 14t14 6
t13.5 -6t5.5 -14v-58h58q8 0 13.5 -5.5t5.5 -13.5t-5.5 -13.5t-13.5 -5.5zM589 461h174q8 0 13.5 5.5t5.5 13.5t-5.5 14t-13.5 6h-174q-8 0 -13.5 -6t-5.5 -14t5.5 -13.5t13.5 -5.5zM821 693h-617q-32 0 -54.5 -23t-22.5 -55v-424q0 -32 22.5 -54.5t54.5 -22.5h387v0
q8 1 13 6.5t5 12.5q0 8 -6 14t-14 6h-385q-16 0 -27.5 11t-11.5 27v424q0 16 11.5 27.5t27.5 11.5h617q16 0 27 -11.5t11 -27.5v-231q0 -8 6 -13.5t14 -5.5q7 0 12.5 5t6.5 12v0v233q0 32 -22.5 55t-54.5 23zM589 384h58q8 0 14 5.5t6 13.5t-6 14t-14 6h-58q-8 0 -13.5 -6
t-5.5 -14t5.5 -13.5t13.5 -5.5zM207 278q-3 -5 -3 -10q0 -8 5.5 -13.5t13.5 -5.5t13.5 5.5t5.5 13.5h2q7 50 45 83t88.5 33t88.5 -33t45 -83h1q0 -8 6 -13.5t14 -5.5t13.5 5.5t5.5 13.5q0 5 -3 10q-8 45 -36 80t-70 52q32 29 32 70q0 40 -28.5 68.5t-68.5 28.5t-68 -28.5
t-28 -68.5q0 -41 31 -70q-41 -17 -69 -52t-36 -80zM377 538q24 0 41 -17t17 -41t-17 -40.5t-41 -16.5t-41 16.5t-17 40.5t17 41t41 17z" />
    <glyph glyph-name="diandongche1" unicode="&#xe600;" horiz-adv-x="1446" 
d="M411 359l-11 25h-4q-44 0 -57 25t13 61l144 197l-43 -11q-10 -3 -17.5 2.5t-7.5 16.5v106q0 11 7.5 16.5t17.5 2.5l109 -34l8 -4l17 68v4h159v-53h-117l-13 -53h12q11 0 17.5 -7.5t4.5 -18.5l-48 -268q3 -4 5 -9l59 -173h87v238q0 11 7.5 18.5t19.5 7.5h315
q71 0 134.5 -48.5t82.5 -117.5l41 -152q3 -11 -3 -18.5t-17 -7.5h-447v-53q0 -11 -8 -18.5t-19 -7.5h-271q-11 0 -18.5 7.5t-7.5 18.5v28h-26q-11 0 -22 7t-16 17l-39 85l-34 -36q29 -46 29 -101q0 -76 -54 -130.5t-131 -54.5t-131.5 54.5t-54.5 131t54.5 131t131.5 54.5
q39 0 75 -16zM1303 119q0 -76 -54.5 -130.5t-131.5 -54.5t-131.5 54.5t-54.5 130.5h372z" />
    <glyph glyph-name="che" unicode="&#xe632;" 
d="M282 291q-44 0 -75 -31t-31 -74.5t31 -74.5t75 -31t75 31t31 74.5t-31 74.5t-75 31zM282 130q-23 0 -39.5 16t-16.5 39t16.5 39.5t39.5 16.5t39 -16.5t16 -39.5t-16 -39t-39 -16zM751.5 291q-43.5 0 -74.5 -31t-31 -74.5t31 -74.5t74.5 -31t74.5 31t31 74.5t-31 74.5
t-74.5 31zM752 130q-23 0 -39.5 16t-16.5 39t16.5 39.5t39.5 16.5t39 -16.5t16 -39.5t-16 -39t-39 -16zM862 543q-110 124 -267 138q-162 15 -289 -117q-61 -65 -93 -134v-1h-37h-29h-12q-26 0 -48 -13t-34.5 -34t-20 -47t-3.5 -51.5t15.5 -46.5t36.5 -34t59 -13h1h-1h-3
q-13 -1 0 -1h18q1 51 38 87.5t89 36.5t89 -36.5t38 -87.5h215q1 52 38.5 88t89.5 36t89 -36t39 -88q99 0 104 88q4 86 -72 201q-23 34 -50 65zM262 430q32 58 77 105q102 106 229 104v-208q-24 -1 -141 -1h-165zM557 347h-46q-4 0 -7 3t-3 7.5t3 7.5t7 3h46q5 0 8 -3t3 -7.5
t-3 -7.5t-8 -3zM600 431v206q136 -16 228 -121q34 -39 58 -84q-80 -1 -286 -1z" />
    <glyph glyph-name="yingfuzhangkuandianfu" unicode="&#xe61a;" 
d="M942 740h-670q-34 0 -57.5 -24t-23.5 -57v-28h832v28q0 33 -23.5 57t-57.5 24zM419 440q22 -9 41 -39l125 -194l185 -69h172q34 0 57.5 23.5t23.5 56.5v306h-761q33 -16 70.5 -36t61 -33.5t25.5 -14.5zM776 384h169v-77h-169v77zM514 220v0v0v0zM682 120l-134 42
q-12 -18 -24 -27l-11 -8q-19 -14 -45 -14q-7 0 -14 1q-30 5 -47 29l-68 90q-5 7 -3.5 15.5t8.5 14t15.5 4t13.5 -8.5l68 -91q6 -9 20 -11q17 -3 28 5l10 8q14 12 17.5 25t1.5 18t-4 8l-108 148q-17 26 -35 34q-6 2 -78 35.5t-141 66l-69 32.5l-82 -159l181 -139l131 -167
q9 -10 22 -15q7 -3 16.5 -4.5t16.5 -1.5l6 -1l299 -20q21 -2 37 5t18 18l3 22q0 16 -11.5 27t-37.5 19zM682 120z" />
    <glyph glyph-name="you" unicode="&#xe6dd;" 
d="M512 704q53 0 100.5 -7t80.5 -18t57.5 -24t36.5 -25t12 -21t-12 -21t-36.5 -25.5t-57.5 -24.5t-80.5 -18t-100.5 -7t-100.5 7t-80.5 18t-57.5 24.5t-36.5 25.5t-12 21t12 21t36.5 25t57.5 24t80.5 18t100.5 7zM512 768q-96 0 -176.5 -21t-127.5 -57.5t-47 -80.5t47 -81
t127.5 -58t176.5 -21t176.5 21t127.5 58t47 81t-47 80.5t-127.5 57.5t-176.5 21zM321 608.5q0 -13.5 18.5 -22.5t45 -9t45 9t18.5 22.5t-18.5 23t-45 9.5t-45 -9.5t-18.5 -23zM442 223q0 -17 10 -35t31 -29q-12 26 -12 54q0 25 15.5 76t15.5 55q-7 -15 -24 -41.5t-26.5 -46
t-9.5 -33.5zM831 319q32 32 32 67q0 29 -32 67v92q-6 -3 -16.5 -8t-44 -17.5t-69.5 -22t-89.5 -17.5t-105.5 -8q-39 0 -77 4t-68 10.5t-57 14t-47 15.5t-34.5 14.5t-22 10.5l-7.5 4v-92q-32 -32 -32 -67q0 -30 32 -67v-93q-32 -32 -32 -67q0 -44 47 -80.5t127.5 -57.5
t176.5 -21t176.5 21t127.5 57.5t47 80.5q0 30 -32 67v93zM512 131q-41 0 -68.5 25.5t-27.5 63.5q0 27 24 68.5t48 69.5l24 28q11 -13 26.5 -32.5t42.5 -64t27 -69.5q0 -38 -27.5 -63.5t-68.5 -25.5z" />
    <glyph glyph-name="comiis_siji" unicode="&#xe6b6;" 
d="M512 438q76 0 129.5 57.5t53.5 139t-53.5 139t-129.5 57.5t-129.5 -57.5t-53.5 -139t53.5 -139t129.5 -57.5zM491 152l169 240q-75 19 -147 19h-2q-112 5 -214 -41q-1 -1 -4 -2t-13.5 -12t-22.5 -29q-17 -28 -65 -103.5t-58 -93.5l-6 -9.5t-8 -13.5l-7 -14t-6.5 -17
t-3 -16.5t0 -19t6.5 -18.5q40 -76 51 -85h101q0 30 13.5 64.5t40 67t72.5 55.5t103 28zM890 129q-13 24 -38.5 64.5t-45.5 72.5t-22 35q0 1 -3.5 7.5t-6.5 11t-8 12.5t-10.5 13.5l-12 12t-15 11.5t-16.5 7l-9 3l-9 3l-162 -230q55 -4 101 -26t73.5 -53.5t42 -67t14.5 -68.5
h93q10 -1 58 87q5 13 7 23.5t-2 23.5t-5 16.5t-11.5 21.5t-12.5 20zM512 95q-80 0 -136.5 -46t-56.5 -112h386q0 66 -56.5 112t-136.5 46z" />
    <glyph glyph-name="charge-bg" unicode="&#xe6a7;" 
d="M816 679h-48q-5 20 -21.5 33t-36.5 13h-15v34q0 22 -15 37t-37 15h-245q-22 0 -37 -15t-15 -37v-34h-15q-20 0 -36.5 -12.5t-21.5 -33.5h-48q-36 0 -60.5 -24.5t-24.5 -60.5v-560q0 -36 24.5 -60.5t60.5 -24.5h589q36 0 60.5 24.5t24.5 60.5v560q2 35 -23 60t-60 25z
M369 237q-17 0 -17 17t17 17h134v81h-116q-17 0 -17 17t17 17h89l-77 77q-12 11 0 23t24 0l96 -95l95 95q12 12 24 0t0 -23l-77 -77h89q17 0 17 -17t-17 -17h-116v-81h135q17 0 17 -17t-17 -17h-135v-136q0 -17 -17 -17t-17 17v136h-131zM305 666q0 10 8 17.5t18 7.5h50v68
q0 18 17 18h245q17 0 17 -18v-68h50q10 0 18 -7.5t8 -17.5v-35q0 -10 -8 -17.5t-18 -7.5h-379q-10 0 -18 7.5t-8 17.5v35zM461 700h119q17 0 17 17t-17 17h-119q-17 0 -17 -17t17 -17z" />
    <glyph glyph-name="guanggaorenwu" unicode="&#xe691;" 
d="M677 441h-93v-275h88q52 0 80.5 36t28.5 101.5t-27 102.5q-28 35 -77 35zM272 271h113l-55 159zM905 710h-792q-45 0 -77 -32t-32 -77v-613q0 -45 31.5 -77t76.5 -32h793q45 0 76.5 32t31.5 77v613q1 45 -31 77t-77 32zM462 124h-26l-36 104h-143l-37 -104h-51l136 358
h55l128 -358h-26zM790 173q-42 -49 -112 -49h-143v358h147q68 0 109 -48q40 -49 40 -131q1 -81 -41 -130zM881 730h-745q-8 0 -14 5.5t-6 14.5q0 8 6 14t14 6h745q8 0 14 -6t6 -14.5t-5.5 -14t-14.5 -5.5zM774 790h-530q-8 0 -14 5.5t-6 13.5q0 9 6 14.5t14 5.5h530
q8 0 14 -5.5t6 -14t-6 -14t-14 -5.5z" />
    <glyph glyph-name="woshou" unicode="&#xe62d;" 
d="M315 541l140 107q29 21 64.5 26t68.5 -7l223 -86q21 -8 45 -8h37q8 0 14 -5.5t6 -13.5v-273q0 -8 -6 -14t-14 -6h-48q-11 0 -19 -6l-11 -9q-4 -5 -9 0l-260 317q-11 13 -27 5l-118 -67q-38 -21 -78 -4q-10 4 -14 14.5t0 20.5q0 5 6 9zM131 262h42l29 36q20 24 51 27
t55 -17q19 -16 25 -38q19 -5 32.5 -18.5t19.5 -32.5q30 -10 43 -35q25 -4 42 -21q18 -19 21 -45t-10 -49l-4 -7v-1q14 -10 31.5 -7t28.5 18q10 15 6 33v0h1l3 -3q11 -11 27 -12.5t29 6.5q23 16 17 44v1h1l3 -4q11 -11 26.5 -12.5t29.5 7.5q23 16 18 43v1h1l3 -3
q10 -11 25 -12.5t27 5.5q16 9 20 26.5t-5 32.5q-3 5 -5 7l-26 32l-212 258q-4 4 -9 1l-102 -56q-52 -29 -106 -8q-30 9 -42 41q-9 31 7 58q5 9 -4 13q-1 1 -5 1h-138q-8 0 -14 -5.5t-6 -13.5v-273q8 -18 24 -18zM279 282q-13 6 -26 3.5t-22 -13.5l-29 -35q-9 -12 -7.5 -27
t12.5 -24h1l4 -4q19 -14 40 -3q1 1 3 -1v-1q-4 -22 13 -35l3 -3q18 -14 39 -4q1 1 2 0.5t1 -1.5v-1q-3 -19 14 -32l2 -2q19 -15 40 -3l1 -0.5l1 -0.5v-1q3 -14 14 -23l2 -1q12 -9 27 -7t24 14l4 4l4 9q16 26 -6 47q-17 16 -40 6q-1 0 -2 1v1q1 15 -9 26t-25 12q-8 0 -15 -2
q-4 2 -4 4q5 14 -0.5 27.5t-19.5 19.5q-16 7 -31 -1l-3 3q8 12 4 26t-16 22z" />
    <glyph glyph-name="shuju-" unicode="&#xe645;" 
d="M212 157v500h-50v0h-50v-600h800v100h-700zM262 348h100v-150h-100v150zM412 548h100v-350h-100v350zM562 448h100v-250h-100v250zM712 597h100v-399h-100v399z" />
    <glyph glyph-name="shuju" unicode="&#xe689;" 
d="M107 865h-107v-962h107v962zM151 -97h258v493l-258 -256v-237zM460 -97h255v442l-102 -102l-153 153v-493v0zM766 -97h258v713l-258 -255v-458zM428 552l185 -184l411 409v88l-411 -412l-189 189l-273 -273v-94z" />
    <glyph glyph-name="getigongshanghu" unicode="&#xe690;" 
d="M1003 566l-80 233q-1 -1 -2.5 4t-5 13.5t-8 19t-11 21t-15 19.5t-20.5 14.5t-26 5.5h-646q-11 0 -20.5 -3.5t-17 -9t-14 -13t-11.5 -16t-8.5 -16.5t-6.5 -15.5t-5 -13t-3 -8.5t-2 -2l-80 -233q-18 -45 -21 -93v-5q0 -53 37.5 -92.5t90.5 -41.5q44 1 80.5 33.5t43.5 76.5
q0 1 1.5 3t1.5 3v1l1 -8q1 1 2 3q6 -45 42.5 -77.5t81.5 -34.5h5q5 47 41.5 80t83.5 33t83.5 -33t41.5 -80h5q45 2 81.5 34.5t42.5 77.5q1 -2 2 -3l1 8v-1q1 -1 2 -3t1 -3q7 -44 43.5 -76.5t81.5 -33.5q52 2 89.5 41.5t37.5 92.5v5q-3 48 -21 93zM868 0v0q0 -18 -13 -30
l-102 169h-487l-104 -139v317h-79v-345v-5q0 -37 26.5 -65t64.5 -30h681q38 2 64.5 30t26.5 65v5v345h-78v-317v0z" />
    <glyph glyph-name="kaoqin--" unicode="&#xe60b;" 
d="M186 -32l172 179zM205 -58q25 29 55.5 59.5t67.5 66t56 54.5q12 12 7 28.5t-20 21.5t-32 -6l-179 -179q-12 -12 -5.5 -28.5t21.5 -21.5t29 5zM166 634q45 61 116 102q-5 40 -32 68t-64 28q-44 0 -73.5 -29.5t-29.5 -72.5q0 -34 25 -63t58 -33zM858 621q-40 69 -109 109
q5 38 34.5 63.5t67.5 25.5q43 0 69.5 -29t26.5 -73q-5 -38 -30 -64.5t-59 -31.5zM832 -32l-173 179zM858 -13l-180 179q-12 13 -28.5 7.5t-21.5 -20.5t6 -31l179 -180q12 -12 28.5 -5t21.5 21.5t-5 28.5zM512 768q-103 0 -190.5 -51.5t-137.5 -138t-50 -188.5
q0 -100 50 -187t135.5 -138.5t186.5 -51.5t187.5 50t138 137t51.5 190q0 101 -49.5 188t-135.5 138.5t-186 51.5zM627 294q-96 0 -141 7q-11 -6 -24.5 1t-13.5 24v154q0 18 16 25.5t32 0t16 -25.5v-122h115q21 0 30 -16t0 -32t-30 -16z" />
    <glyph glyph-name="shenfenrenzheng" unicode="&#xe62f;" 
d="M511 516zM511 232v-2v1v1zM756 103q-6 -6 -14.5 -6t-14.5 6l-67 64q-6 6 -6 14t6 15q7 6 15.5 6.5t14.5 -4.5l52 -49l96 95q6 5 15 4.5t15 -6.5t6 -14t-6 -14zM814 600h-256q-8 0 -13.5 -6t-5.5 -14t5.5 -13.5t13.5 -5.5h256q8 0 13.5 5.5t5.5 13.5t-5.5 14t-13.5 6z
M814 504h-256q-8 0 -13.5 -5.5t-5.5 -13.5t5.5 -13.5t13.5 -5.5h256q8 0 13.5 5.5t5.5 13.5t-5.5 13.5t-13.5 5.5zM646 390q0 8 -5.5 13.5t-13.5 5.5h-69q-8 0 -13.5 -5.5t-5.5 -13.5t5.5 -14t13.5 -6h69q8 0 13.5 6t5.5 14zM769.5 369q-79.5 0 -136 -56t-56.5 -135
t56.5 -135t136 -56t136 56t56.5 135t-56.5 135t-136 56zM769 19q-66 0 -112.5 46.5t-46.5 111.5t46.5 111t112 46t112 -46t46.5 -111q1 -66 -45.5 -112t-112.5 -46zM382 405l-2 1q-2 0 -6.5 1.5t-4.5 3.5q1 3 12 10q21 14 36.5 41.5t15.5 59.5q0 48 -31 82.5t-75 34.5
t-75 -34.5t-31 -82.5q0 -34 16 -62.5t44 -42.5l3 -2q7 -4 7 -8v-1l-0.5 -0.5l-0.5 -0.5q-1 0 -3 -0.5t-3 -1.5q-5 -1 -9 -3h-1q-47 -17 -75.5 -54.5t-28.5 -84.5v-17h333v17q0 50 -34 90.5t-87 53.5zM204 278q5 30 27.5 55t55.5 37l5 1l0.5 0.5t1.5 0.5q3 1 6 1q4 2 7 3l1 1
q17 9 17 31t-25 36l-3 2q-19 10 -30.5 31t-11.5 45q0 34 21.5 58.5t51.5 24.5t50.5 -24.5t20.5 -58.5q0 -23 -11 -43.5t-27 -29.5q-26 -18 -26 -38q0 -16 11.5 -26t27.5 -12q37 -10 62.5 -36t31.5 -59h-264zM918 384h43v309q0 27 -21 45.5t-49 18.5h-760q-28 0 -47 -18.5
t-19 -45.5v-514q0 -26 17 -45t42 -21h389v43h-368q-41 4 -41 41l3 477q0 40 43 40h722q46 0 46 -38v-292z" />
    <glyph glyph-name="shouruyouhua" unicode="&#xe602;" 
d="M98 411v139.5v138.5q0 37 9 60t26.5 33t33.5 12.5t41 2.5h442q63 0 87.5 -24t24.5 -86v-55q0 -21 -14 -28.5t-28 1t-14 27.5v55q0 31 -12 43t-44 12h-442q-35 0 -45 -9.5t-10 -45.5v-553q0 -24 14 -39.5t41 -15.5h55.5h55.5q16 0 23 -13.5t0.5 -27.5t-23.5 -14h-54.5
h-77.5t-52 16.5t-32 43.5q-5 15 -5 32v295zM650 -31q-115 0 -195.5 80.5t-80.5 195t81 195.5t195.5 81t195 -81t80.5 -196q0 -114 -81 -194.5t-195 -80.5zM650 466q-90 0 -155 -64.5t-66 -155.5q0 -92 64.5 -156.5t155.5 -65.5q91 0 156.5 64.5t65.5 154.5q0 92 -64.5 157
t-156.5 66zM595 632q21 0 28 -14t-1.5 -28t-26.5 -14h-332q-19 0 -26.5 14t0.5 28t26 14h191h141zM651 290q0 -5 3 -8q6 -7 46 -49t47 -50q11 -11 7.5 -26t-17.5 -19q-15 -5 -25 6q-6 5 -31 30.5t-47.5 49t-30.5 31.5q-7 7 -7 19v110q0 11 7.5 19t18.5 8t20 -8t9 -20v-46.5
v-46.5zM319 466q20 0 27.5 -14t-1 -28t-26.5 -14h-56q-19 0 -26.5 14t0.5 28t26 14h56z" />
    <glyph glyph-name="hetongshenpi" unicode="&#xe605;" 
d="M836 256h-213v220h-56v-220h-110v220h-56v-220h-213q-37 0 -63.5 -26.5t-26.5 -63.5v-108q0 -37 26.5 -63.5t63.5 -26.5h648q37 0 63.5 26.5t26.5 63.5v108q0 37 -26.5 63.5t-63.5 26.5zM870 58q0 -14 -10 -24t-24 -10h-648q-14 0 -24 10t-10 24v108q0 14 10 24t24 10
h648q14 0 24 -10t10 -24v-108zM513 775q58 0 98.5 -40.5t40.5 -98.5t-40.5 -98.5t-98.5 -40.5t-98.5 40.5t-40.5 98.5t40.5 98.5t98.5 40.5zM513 831q-40 0 -76 -15q-35 -15 -62 -42t-42 -62q-15 -36 -15 -76t15 -76q15 -35 42 -62t62 -42q36 -15 76 -15t76 15q35 15 62 42
t42 62q15 36 15 76t-15 76q-15 35 -42 62t-62 42q-36 15 -76 15z" />
    <glyph glyph-name="wode" unicode="&#xe606;" 
d="M925 1q-12 123 -90 218.5t-194 133.5q58 34 92 92.5t34 128.5q0 106 -75 181t-181 75t-181 -75t-75 -181q0 -70 35 -129t93 -93q-115 -38 -192.5 -133t-89.5 -218q-1 -2 -1 -5q0 -12 8.5 -20t20 -8t19.5 8t8 20v0q6 53 27 102q27 64 76.5 114t113.5 77q67 28 140 28
t140 -28q64 -27 113.5 -77t76.5 -114q21 -49 27 -102v0q0 -12 8 -20t19.5 -8t20 8t8.5 20q0 3 -1 5v0zM311 574q0 83 58.5 141.5t141.5 58.5t141.5 -58.5t58.5 -141.5t-58.5 -141.5t-141.5 -58.5t-141.5 58.5t-58.5 141.5z" />
    <glyph glyph-name="sousuo" unicode="&#xe60a;" 
d="M919 16l-175 175q-1 0 -1 1q88 103 88 238q0 100 -49.5 184.5t-134 134t-184.5 49.5t-184.5 -49.5t-133.5 -134t-49 -184.5t49 -184.5t133.5 -133.5t184.5 -49q137 0 240 89l1 -1l176 -174q8 -9 19 -9v0q12 0 20 8.5t8 20t-8 19.5zM585 143q-58 -24 -121.5 -24t-121.5 24
q-56 24 -99 67t-67 99q-24 58 -24 121.5t24 120.5q24 56 67 99.5t99 66.5q58 25 121.5 25t121.5 -25q55 -23 98.5 -66.5t66.5 -99.5q25 -57 25 -120.5t-25 -121.5q-23 -56 -66.5 -99t-98.5 -67z" />
    <glyph glyph-name="shouye" unicode="&#xe60c;" 
d="M928 346l-396 441q-8 9 -20.5 9t-20.5 -9l-397 -441q-7 -8 -7 -19q0 -6 2 -12q8 -16 26 -16v0h113v-299q0 -11 8 -19.5t20 -8.5h513q12 0 20 8.5t8 19.5v299h111q12 0 20 8t8 20v0q0 11 -8 19v0zM469 28v101h85v-101h-85zM769 355v0v0q-12 0 -20 -8t-8 -20v0v-299h-131
v129q0 12 -8.5 20t-19.5 8h-141q-12 0 -20 -8t-8 -20v-129h-129v299q0 12 -8 20t-20 8h-79l334 371l334 -371h-76z" />
    <glyph glyph-name="zhanghuxinxi" unicode="&#xe60e;" 
d="M870 680q14 0 24 -10t10 -24v-524q0 -14 -10 -24t-24 -10h-716q-14 0 -24 10t-10 24v524q0 14 10 24t24 10h716zM870 736h-716q-37 0 -63.5 -26.5t-26.5 -63.5v-524q0 -37 26.5 -63.5t63.5 -26.5h716q37 0 63.5 26.5t26.5 63.5v524q0 37 -26.5 63.5t-63.5 26.5zM479 373
q34 35 34 84t-35.5 84.5t-85 35.5t-84.5 -35.5t-35 -84.5t33 -84q-51 -24 -82 -72.5t-31 -107.5h56q0 60 42 102q39 39 95 42h6.5h7.5q55 -3 94 -42q43 -42 43 -102h56q0 59 -31.5 107.5t-82.5 72.5zM329 457q0 26 18.5 45t45 19t45.5 -19t19 -45q0 -25 -17 -43.5t-42 -20.5
h-5.5h-5.5q-25 2 -41.5 20.5t-16.5 43.5zM832 548q0 -12 -8 -20t-20 -8h-183q-12 0 -20 8t-8 20t8 20t20 8h183q12 0 20 -8t8 -20zM832 416q0 -12 -8 -20t-20 -8h-124q-12 0 -20 8t-8 20t8 20t20 8h124q12 0 20 -8t8 -20zM832 284q0 -12 -8 -20t-20 -8h-70q-11 0 -19.5 8
t-8.5 20t8.5 20t19.5 8h70q12 0 20 -8t8 -20z" />
    <glyph glyph-name="fapiaoguanli" unicode="&#xe63b;" 
d="M896 421q-25 12 -63 19.5t-65 7.5q-87 0 -161 -42.5t-116.5 -116.5t-42.5 -161q0 -64 35 -137t85 -113q-10 -5 -21 -5q-18 0 -32 12l-73 58l-66 -58q-14 -12 -33 -12v0h-1q-19 0 -33 12l-65 58l-66 -59q-14 -12 -33 -12h-1v0q-19 0 -33 12l-77 68q-3 4 -6 7
q-11 9 -19.5 24.5t-8.5 29.5v832q0 21 15 36t36 15h794q21 0 36 -15t15 -36v-424zM102 466q0 -10 7.5 -17.5t17.5 -7.5h232q11 0 18 7.5t7 17.5q0 11 -7.5 18.5t-17.5 7.5h-232v0q-10 0 -17.5 -7.5t-7.5 -17.5v-1zM102 264q0 -10 7.5 -17.5t17.5 -7.5h181q10 0 17.5 7.5
t7.5 17.5v0v0q0 11 -7.5 18t-17.5 8h-181q-10 0 -17.5 -7.5t-7.5 -17.5v-1zM102 694q0 -10 7.5 -17.5t18.5 -7.5h333q11 0 18 7t7 17.5t-7 18t-18 7.5h-333h-1q-10 0 -17.5 -7.5t-7.5 -17.5v0zM768 -128q-106 0 -181 75t-75 181t75 181t181 75t181 -75t75 -181t-75 -181
t-181 -75zM889 131h1q9 0 15.5 6.5t6.5 15t-6.5 15t-15.5 6.5h-1h-55l55 55q6 6 6 15t-6.5 15t-15 6t-14.5 -6l-79 -78l-78 78q-6 6 -15 6t-15 -6t-6 -15t6 -15l55 -55h-52q-8 -1 -14 -7t-6 -14.5t6 -14.5t14 -7h86v-42h-86q-8 0 -14.5 -6t-6.5 -15t6.5 -15.5t14.5 -6.5h86
v-49q0 -9 6 -15t15 -6t15 6t6 15v49h86q9 0 15 6.5t6 15.5t-6 15t-15 6h-86v42h86z" />
    <glyph glyph-name="shezhi" unicode="&#xe610;" 
d="M554 -26h-78q-21 0 -36.5 15.5t-15.5 36.5v53q-63 18 -112 58l14 -73q-16 -15 -37.5 -15t-37.5 15l-54 55q-16 15 -16 37t16 38l36 37q-31 55 -37 120l-41 -61q-22 0 -37.5 15.5t-15.5 36.5v78q0 21 15.5 36.5t37.5 15.5h52q18 63 58 112l-73 -14q-15 16 -15 37.5
t15 37.5l55 54q15 16 37 16t38 -16l37 -36q55 31 120 37l-61 42q0 21 15.5 36.5t36.5 15.5h78q21 0 36.5 -15.5t15.5 -36.5v-53q63 -18 112 -58l-14 73q16 15 37.5 15t37.5 -15l54 -55q16 -15 16 -37t-16 -38l-36 -37q31 -55 37 -120l42 61q21 0 36.5 -15.5t15.5 -36.5v-78
q0 -21 -15.5 -36.5t-36.5 -15.5h-53q-18 -63 -58 -112l73 14q15 -16 15 -37.5t-15 -37.5l-55 -54q-15 -16 -37 -16t-38 16l-37 36q-55 -31 -120 -37l61 -41q0 -22 -15.5 -37.5t-36.5 -15.5zM356 167l17 -11q53 -33 117 -38l-15 1v-93q0 -1 1 -1h78q1 0 1 1v94l20 5
q64 15 113 58l-15 -13l65 -65q1 -1 1.5 -1t1.5 1l54 54q1 1 1 1.5t-1 1.5l-66 66l11 17q33 53 38 117l-1 -15h93q1 0 1 1v78q0 1 -1 1h-94l-5 20q-15 64 -58 113l13 -15l65 65q1 1 1 1.5t-1 1.5l-54 54q-1 1 -2 1v0l-1 -1l-66 -66l-17 11q-53 33 -117 38l15 -1v92q0 2 -1 2
h-78q-1 0 -1 -2v-93l-20 -5q-64 -15 -113 -58l15 13l-65 65q-1 1 -1.5 1t-1.5 -1l-54 -54q-1 -1 -1 -1.5t1 -1.5l66 -66l-11 -17q-33 -53 -38 -117l1 15h-92q-2 0 -2 -1v-78q0 -1 2 -1h93l5 -20q15 -64 58 -113l-13 15l-65 -65q-1 -1 -1 -1.5t1 -1.5l54 -54q1 -1 1.5 -1
t1.5 1zM512 244q-58 0 -99 41t-41 99t41 99t99 41t99 -41t41 -99t-41 -99t-99 -41zM512 471q-36 0 -61.5 -25.5t-25.5 -61.5t25.5 -61.5t61.5 -25.5t61.5 25.5t25.5 61.5t-25.5 61.5t-61.5 25.5z" />
    <glyph glyph-name="zhangdan" unicode="&#xea7a;" 
d="M755 704h-486q-14 0 -23 -9t-9 -22v-597q0 -5 3.5 -8.5t8.5 -3.5t8 4q71 77 85 81q10 0 33 -37q9 -15 14.5 -23t15 -15.5t19.5 -7.5q9 0 19 7.5t16 15t17 23.5q26 37 36 37q9 0 33 -36q9 -15 14.5 -23t15 -15.5t18.5 -7.5h0.5h1.5q13 0 25.5 10.5t30.5 32.5q30 36 41 37
q14 -9 66 -77q5 -6 13 -6q7 0 11.5 4.5t4.5 11.5v593q0 13 -9 22t-23 9zM629 355h-234q-8 0 -13.5 5.5t-5.5 13.5t5.5 13.5t13.5 5.5h234q8 0 14 -5.5t6 -13.5t-6 -13.5t-14 -5.5zM629 453h-234v0q-8 0 -14 6t-6 14t6 13.5t14 5.5h234q8 0 13.5 -5.5t5.5 -13.5t-5.5 -13.5
t-13.5 -6.5z" />
    <glyph glyph-name="shangjin" unicode="&#xe603;" 
d="M574 -30q-96 0 -178 47t-129 128.5t-47 178t47 178t129 129t178 47.5t177.5 -47.5t129 -129t47.5 -178t-47.5 -178t-129 -128.5t-177.5 -47zM664 508l-100 -184l-99 184h-55l114 -202h-83v-28h99v-54h-99v-28h99v-88h49v88h99v28h-99v54h99v28h-83l114 202h-55zM171 324
q0 -57 16 -112q-85 99 -85 230q0 96 47 177.5t128.5 129t178.5 47.5q130 0 230 -85q-56 16 -112 16q-110 0 -202.5 -54t-146.5 -147t-54 -202z" />
  </font>
</defs>
</svg>
